<?xml version="1.0" standalone="no"?>
<!DOCTYPE svg PUBLIC "-//W3C//DTD SVG 20010904//EN"
 "http://www.w3.org/TR/2001/REC-SVG-20010904/DTD/svg10.dtd">
<svg version="1.0" xmlns="http://www.w3.org/2000/svg" 
 width="800.000000pt" height="800.000000pt" viewBox="0 0 800.000000 800.000000"
 preserveAspectRatio="xMidYMid meet">

<g transform="translate(0.000000,800.000000) scale(0.100000,-0.100000)"
fill="#000000" stroke="none">
<path d="M4232 7029 c-7 -11 -10 -25 -6 -31 5 -7 2 -9 -9 -5 -12 4 -14 2 -10
-11 6 -14 4 -15 -9 -5 -13 11 -15 6 -12 -42 2 -30 8 -63 14 -72 9 -15 10 -13
5 10 -4 19 -2 26 5 22 13 -8 13 7 0 23 -6 6 -7 10 -4 7 4 -2 14 6 24 18 13 16
16 28 9 45 -13 33 -12 35 12 29 17 -5 18 -3 7 11 -7 9 -13 18 -13 19 0 1 -6
-7 -13 -18z"/>
<path d="M3620 7026 c0 -2 8 -10 18 -17 15 -13 16 -12 3 4 -13 16 -21 21 -21
13z"/>
<path d="M3585 6991 c-3 -5 -1 -12 5 -16 5 -3 10 -11 10 -16 0 -6 -4 -7 -10
-4 -5 3 -10 1 -10 -4 0 -17 15 -13 36 10 16 17 16 22 4 29 -19 12 -27 12 -35
1z"/>
<path d="M3567 6919 c7 -7 15 -10 18 -7 3 3 -2 9 -12 12 -14 6 -15 5 -6 -5z"/>
<path d="M3560 6892 c0 -5 7 -15 15 -22 8 -7 15 -8 15 -2 0 5 -7 15 -15 22 -8
7 -15 8 -15 2z"/>
<path d="M4164 6883 c2 -13 0 -25 -4 -28 -5 -3 -10 2 -12 11 -3 14 -5 14 -21
-3 -16 -19 -16 -21 -1 -34 15 -12 16 -11 10 11 -6 21 -5 22 4 8 7 -12 8 -24 2
-34 -5 -10 -12 -12 -15 -7 -4 6 -17 8 -31 6 -23 -5 -24 -6 -7 -34 14 -26 14
-31 1 -39 -13 -8 -8 -14 11 -12 5 1 4 -31 -4 -95 -3 -34 -12 -34 -14 0 -3 38
-18 48 -52 35 l-26 -9 23 21 c25 23 30 39 6 20 -8 -8 -14 -9 -12 -4 1 5 -6 19
-17 31 l-19 22 -18 -30 c-35 -58 -50 -118 -43 -173 4 -28 13 -54 19 -58 19
-13 36 -9 37 10 0 10 3 12 6 4 2 -6 10 -9 16 -5 7 3 9 3 5 -2 -4 -4 -2 -17 3
-28 9 -16 13 -17 20 -6 8 12 9 11 7 -1 -3 -20 20 -60 35 -60 7 0 6 4 -3 10 -8
5 -10 10 -4 10 14 0 64 -64 64 -82 -1 -10 -4 -9 -13 2 -16 20 -38 24 -31 5 4
-8 10 -15 16 -15 5 0 6 -5 3 -10 -4 -6 -2 -9 4 -8 6 2 22 -10 36 -27 23 -26
25 -27 20 -7 -4 13 -2 22 5 22 6 0 9 -4 6 -9 -7 -10 40 -71 54 -71 11 0 7 19
-8 48 -7 12 -9 22 -4 22 14 0 33 -26 25 -33 -3 -4 3 -7 15 -7 12 0 21 5 20 11
-6 25 23 19 33 -7 5 -16 13 -24 17 -19 12 17 44 15 38 -2 -5 -13 -1 -14 22
-10 27 5 29 4 27 -24 -1 -18 3 -29 12 -29 7 0 21 -9 30 -20 12 -13 19 -16 24
-8 4 6 15 8 25 4 18 -7 18 -8 0 -22 -18 -13 -12 -19 16 -15 4 0 6 -8 5 -19 -1
-11 -5 -20 -9 -20 -4 0 -8 -9 -8 -21 0 -14 -5 -19 -14 -16 -10 4 -12 -3 -10
-26 3 -18 7 -40 10 -51 5 -14 2 -18 -9 -13 -12 5 -14 -2 -9 -35 4 -32 2 -39
-8 -33 -7 4 -16 2 -20 -5 -5 -8 -20 -14 -33 -14 -14 -1 -23 2 -21 6 2 3 0 9
-6 13 -5 3 -10 14 -10 23 0 13 2 14 9 3 5 -8 11 -9 15 -3 8 13 -19 23 -31 11
-5 -5 -9 -1 -10 11 -1 11 2 18 7 15 6 -3 7 1 4 9 -3 8 -14 13 -27 10 -24 -4
-37 11 -37 44 0 17 -6 22 -25 22 -14 0 -25 5 -25 10 0 6 -13 18 -30 28 -21 13
-26 22 -19 29 8 8 8 13 0 17 -15 10 -33 -3 -25 -17 3 -7 -1 -4 -9 6 -11 13
-16 15 -19 5 -4 -10 -8 -9 -21 3 -11 11 -12 20 -5 27 6 6 6 12 -1 16 -8 5 -8
13 0 28 7 13 7 24 1 30 -7 7 -12 -4 -17 -32 -7 -40 -8 -41 -25 -23 -9 10 -15
22 -12 27 3 5 -2 7 -11 3 -9 -3 -19 -2 -22 4 -4 5 -12 7 -18 3 -7 -3 -4 1 5 8
11 10 14 19 7 29 -6 9 -9 10 -9 2 0 -7 -6 -10 -14 -7 -11 4 -13 0 -9 -18 3
-13 1 -18 -4 -12 -14 18 -40 23 -53 11 -10 -9 -11 -9 -5 1 8 15 -21 52 -42 52
-7 0 -12 5 -11 11 2 6 -3 14 -11 17 -10 3 -12 0 -8 -12 4 -9 2 -16 -3 -16 -6
0 -10 5 -10 10 0 6 -3 9 -7 9 -5 -1 -10 0 -13 1 -3 1 -13 3 -23 5 -14 3 -16 0
-7 -10 11 -14 4 -45 -12 -45 -5 0 -3 -7 6 -15 9 -9 13 -26 10 -41 -4 -22 -2
-25 13 -20 9 4 14 4 10 -1 -5 -4 -22 -8 -38 -9 -27 -2 -28 -1 -12 13 17 14 17
14 0 9 -10 -3 -15 -2 -12 3 3 5 1 12 -5 16 -6 4 -10 -4 -10 -19 0 -13 -3 -31
-6 -40 -4 -11 0 -16 13 -16 12 0 19 -7 19 -19 0 -11 -5 -17 -11 -13 -5 3 -20
5 -32 3 -13 -1 -23 2 -23 8 0 5 -12 8 -27 5 -17 -3 -23 -1 -15 4 9 6 8 17 -7
47 -10 21 -16 46 -13 57 2 10 -1 18 -7 18 -6 0 -11 -9 -11 -19 0 -24 -16 -36
-26 -20 -3 6 0 15 7 20 10 7 6 8 -13 5 -28 -5 -42 12 -32 39 7 18 0 19 -26 5
-16 -8 -19 -7 -17 10 1 11 9 22 19 26 10 3 15 11 11 20 -5 13 -8 13 -15 2 -7
-9 -11 -9 -14 -2 -3 6 -11 20 -20 30 -10 14 -14 15 -12 4 6 -31 -27 -14 -38
19 -10 30 -9 38 7 54 10 11 16 25 13 31 -3 6 0 4 8 -5 7 -9 18 -14 25 -12 6 2
14 -5 18 -16 6 -20 17 -26 39 -22 5 1 5 -6 2 -16 -6 -14 -3 -13 13 4 12 12 21
24 21 27 0 6 -23 2 -37 -7 -6 -4 -15 -2 -19 4 -4 8 -3 9 4 5 7 -4 12 -3 12 1
0 5 -9 14 -20 21 -11 7 -20 22 -20 33 0 16 -4 20 -17 14 -14 -5 -15 -4 -6 6
10 10 15 9 28 -1 8 -7 15 -9 15 -4 0 5 5 2 10 -6 8 -13 10 -12 10 4 0 12 -5
16 -15 12 -8 -3 -15 -1 -15 4 0 6 -5 10 -12 10 -6 0 -20 8 -31 17 -18 17 -19
17 -33 -2 -13 -17 -13 -20 3 -27 10 -3 12 -7 5 -7 -7 -1 -10 -5 -7 -11 3 -5 1
-10 -4 -10 -6 0 -11 5 -11 11 0 6 -7 17 -15 25 -8 8 -19 23 -25 32 -6 11 -13
13 -17 7 -11 -14 -36 -18 -28 -5 4 6 -1 22 -9 35 -15 23 -15 25 1 25 15 0 15
1 -2 13 -10 8 -15 19 -11 25 3 6 1 14 -5 17 -5 4 -8 14 -4 23 3 9 3 13 -1 9
-4 -3 -20 14 -35 38 -16 25 -31 45 -35 45 -4 0 -1 -6 5 -14 8 -10 9 -16 1 -21
-6 -4 -10 -3 -9 2 4 18 -21 63 -36 63 -8 0 -15 3 -15 8 0 4 -9 18 -20 32 l-20
25 9 -32 c5 -18 12 -38 16 -45 4 -7 -5 -1 -18 14 -14 15 -27 32 -29 38 -2 6
-11 12 -20 14 -9 1 -26 10 -38 21 -11 10 -20 13 -20 7 0 -6 6 -13 13 -16 6 -4
2 -4 -10 -2 -30 5 -29 1 8 -35 18 -18 28 -36 25 -45 -3 -9 -1 -12 4 -9 6 3 10
1 10 -4 0 -18 -28 -12 -33 7 -4 15 -5 15 -6 0 0 -9 8 -23 20 -31 11 -8 31 -30
45 -48 13 -18 24 -28 24 -21 0 7 7 12 16 12 8 0 12 5 9 10 -5 8 -12 7 -23 -2
-14 -10 -15 -10 -5 1 7 8 8 20 3 30 -5 9 -11 24 -14 34 -4 11 -11 15 -17 11
-8 -4 -9 -3 -5 5 6 9 11 9 22 0 8 -6 14 -16 14 -21 0 -9 35 -62 58 -86 10 -11
12 -10 9 7 -2 12 -9 27 -15 33 -7 7 -12 23 -12 37 0 24 1 24 25 -11 14 -20 23
-43 20 -50 -6 -19 21 -52 36 -42 7 4 10 3 5 -4 -3 -6 0 -14 7 -19 8 -4 20 -19
27 -33 10 -20 10 -23 0 -13 -11 10 -16 9 -27 -5 -12 -16 -13 -16 -7 1 8 22
-14 49 -36 45 -9 -2 -25 4 -35 12 -10 8 -21 15 -24 15 -3 0 -5 3 -4 8 2 4 -3
7 -11 7 -11 0 -12 -5 -3 -24 7 -14 17 -22 26 -18 9 3 12 1 7 -6 -7 -11 6 -17
27 -13 5 1 6 -6 3 -16 -3 -10 1 -30 9 -45 7 -16 10 -28 5 -28 -5 0 -4 -15 1
-32 5 -18 12 -53 15 -78 3 -25 11 -49 16 -55 8 -7 8 -6 3 4 -6 10 -4 12 4 7 9
-6 9 -11 -1 -24 -11 -13 -11 -15 3 -10 11 5 21 -4 33 -28 20 -43 20 -48 1 -40
-12 4 -13 2 -3 -14 7 -11 15 -15 19 -9 3 6 14 -2 24 -18 21 -32 47 -53 57 -47
3 2 9 -9 13 -26 4 -16 12 -30 19 -30 7 0 20 -15 29 -32 14 -27 16 -28 11 -8
-4 19 -3 22 5 10 6 -8 8 -24 4 -35 -5 -18 -4 -19 12 -5 11 8 16 10 12 3 -4 -7
0 -16 10 -22 10 -6 13 -11 6 -11 -6 0 -15 5 -19 12 -5 7 -11 5 -21 -7 -7 -11
-14 -14 -14 -7 -1 7 -3 17 -4 22 -1 6 -3 15 -4 21 0 6 -7 9 -13 6 -7 -2 -19 3
-26 12 -8 9 -11 11 -8 6 2 -6 1 -17 -4 -25 -7 -12 -12 -12 -28 3 -10 9 -24 17
-31 17 -8 0 -10 7 -6 19 4 14 0 20 -19 23 -14 3 -27 0 -29 -6 -2 -6 -2 0 0 14
1 14 -1 39 -6 55 l-9 30 -1 -38 c-1 -21 -5 -36 -10 -33 -5 4 -12 1 -14 -4 -3
-6 -4 -5 -3 2 2 7 -6 24 -16 38 -12 15 -15 26 -9 28 6 2 11 8 11 13 0 6 -4 7
-10 4 -5 -3 -10 -1 -10 4 0 6 -7 11 -15 11 -8 0 -26 18 -40 40 -14 23 -30 38
-35 35 -6 -3 -10 -1 -10 4 0 6 -5 11 -11 11 -5 0 -7 -5 -3 -11 5 -8 1 -8 -14
0 -11 6 -22 17 -25 26 -7 18 -37 9 -37 -11 0 -8 4 -14 9 -14 4 0 20 -11 35
-25 14 -13 28 -23 29 -22 7 6 55 -42 62 -62 6 -18 9 -21 16 -10 7 11 9 9 7 -6
0 -11 0 -29 0 -39 2 -20 2 -20 18 0 8 10 13 14 10 7 -4 -6 1 -16 10 -21 21
-12 7 -38 -21 -37 -21 0 -48 22 -58 46 -4 9 -6 8 -6 -5 -1 -15 -4 -16 -15 -7
-11 9 -15 9 -19 -1 -4 -11 -6 -10 -6 0 -1 7 -5 10 -11 7 -5 -3 -10 -1 -10 4 0
6 5 11 10 11 6 0 10 7 10 16 0 8 -4 13 -9 9 -5 -3 -17 2 -25 11 -9 8 -16 12
-16 7 0 -4 -4 -2 -9 6 -5 7 -22 14 -38 15 -17 1 -38 8 -49 16 -16 13 -17 13
-9 0 4 -8 15 -23 23 -33 8 -9 12 -20 9 -24 -4 -3 -7 -1 -7 5 0 7 -6 12 -14 12
-8 0 -18 9 -21 20 -6 17 -35 30 -35 14 0 -18 24 -44 40 -44 11 0 20 -5 20 -11
0 -6 -9 -8 -22 -4 -16 6 -20 4 -16 -7 3 -8 -1 -23 -9 -33 -15 -19 -15 -19 -11
7 4 20 1 25 -10 20 -12 -4 -14 1 -10 22 5 26 5 26 -18 11 -14 -9 -24 -11 -24
-5 0 6 -4 8 -10 5 -12 -8 -13 5 -1 24 7 11 13 12 23 3 35 -29 53 51 19 82 -19
17 -19 16 -6 -20 15 -44 10 -70 -10 -54 -7 6 -19 8 -27 5 -9 -4 -18 1 -22 10
-3 10 -12 15 -20 12 -10 -4 -12 0 -9 14 4 13 10 16 22 10 9 -5 21 -6 28 -4 21
8 -7 41 -30 35 -12 -3 -23 1 -29 11 -4 9 -15 14 -24 10 -9 -3 -11 -9 -5 -17
13 -16 6 -77 -10 -87 -20 -12 -29 -11 -29 4 -1 7 -6 5 -14 -5 -7 -10 -16 -15
-20 -11 -11 11 -39 12 -58 2 -29 -15 -21 -29 12 -22 22 4 35 1 43 -10 15 -19
63 -35 52 -17 -5 9 -1 10 16 5 47 -13 65 -27 77 -57 8 -23 16 -29 31 -25 15 3
18 1 14 -11 -4 -10 -2 -13 5 -8 7 4 12 2 12 -4 0 -7 6 -10 14 -7 10 4 12 0 9
-14 -3 -10 -9 -16 -14 -13 -5 3 -16 1 -24 -4 -14 -7 -13 -11 4 -34 l21 -26
-24 2 c-14 0 -23 7 -22 16 1 8 -5 14 -12 12 -8 -1 -16 5 -19 15 -5 21 -90 86
-116 90 -12 2 -16 -1 -10 -9 4 -7 -5 -5 -20 5 -15 9 -27 14 -27 11 0 -4 -9 1
-20 11 -13 12 -20 14 -20 5 0 -9 -3 -10 -13 -1 -8 6 -16 8 -20 5 -3 -3 -17 2
-31 11 -14 10 -26 13 -27 9 0 -5 -4 0 -8 10 -4 11 -10 15 -14 10 -3 -5 8 -30
24 -54 29 -43 50 -68 34 -41 -5 9 1 7 19 -4 14 -10 26 -18 26 -20 0 -1 7 -19
15 -38 14 -34 14 -36 -2 -30 -10 3 -22 9 -28 13 -5 4 -23 10 -38 14 -15 4 -25
11 -22 16 4 6 -7 10 -24 10 -21 0 -31 -5 -31 -16 0 -8 4 -13 9 -10 5 3 14 -1
21 -9 7 -8 16 -12 21 -9 5 3 9 2 8 -3 -5 -19 13 -41 28 -36 11 4 25 -4 41 -23
13 -16 21 -24 18 -18 -3 7 1 14 9 18 8 3 15 11 15 19 0 8 11 13 29 13 28 0 28
-1 14 -22 -19 -29 -18 -25 -5 -51 10 -19 9 -20 -9 -16 -11 3 -17 9 -12 12 4 3
8 15 9 27 0 16 -4 20 -18 16 -10 -2 -18 -13 -18 -26 0 -14 -6 -23 -15 -23 -8
0 -15 4 -15 9 0 5 -9 4 -20 -2 -10 -6 -23 -9 -27 -9 -18 4 -43 -15 -43 -33 0
-19 1 -19 29 2 19 13 32 17 36 10 4 -6 10 -8 15 -5 10 6 33 -30 37 -55 5 -42
14 -65 34 -86 12 -13 25 -22 29 -21 4 1 25 -14 47 -34 32 -29 38 -39 29 -51
-10 -14 -16 -14 -50 3 -21 10 -45 24 -54 31 -13 11 -14 11 -7 -2 5 -9 -1 -7
-15 5 l-23 20 6 -25 c6 -23 5 -24 -8 -6 -8 10 -19 15 -26 10 -8 -4 -10 -3 -5
4 4 7 2 12 -3 12 -6 0 -11 -4 -11 -10 0 -5 -7 -6 -17 -3 -11 4 -14 3 -9 -5 4
-7 16 -12 26 -12 22 0 30 -11 37 -51 3 -23 1 -29 -14 -29 -15 0 -16 2 -3 10 8
5 12 10 10 12 -77 49 -87 53 -106 34 -12 -13 -14 -20 -6 -28 8 -8 6 -19 -9
-40 -23 -31 -39 -36 -39 -12 0 11 -6 15 -19 11 -10 -2 -26 0 -35 5 -9 5 -16 5
-16 1 0 -4 -29 -8 -65 -7 -61 0 -64 -1 -48 -18 8 -10 20 -15 24 -12 5 3 15 2
22 -3 6 -4 23 -8 37 -9 14 -1 43 -7 65 -14 22 -6 48 -12 57 -14 18 -2 64 -54
56 -62 -6 -6 -68 26 -68 35 0 4 -16 5 -35 3 -19 -2 -35 -8 -35 -13 0 -5 -12
-14 -27 -20 -20 -7 -28 -6 -35 3 -5 8 -8 9 -8 2 0 -7 -7 -15 -16 -18 -14 -5
-15 -4 -5 8 9 11 7 15 -8 19 -11 3 -28 -1 -37 -7 -25 -19 -2 -56 35 -56 24 0
29 -4 27 -24 0 -13 -4 -22 -8 -19 -5 2 -8 -4 -8 -15 0 -10 -3 -22 -7 -26 -5
-4 -8 -20 -8 -34 0 -20 -5 -26 -18 -24 -9 2 -17 -2 -17 -8 0 -5 7 -10 15 -10
8 0 15 -6 15 -14 0 -19 52 -56 79 -56 12 0 21 -6 21 -12 0 -9 3 -9 8 -3 8 12
52 18 52 7 0 -13 -44 -36 -73 -39 -15 -2 -40 -9 -56 -17 -25 -13 -31 -13 -49
0 -18 12 -26 13 -44 3 -13 -7 -26 -17 -30 -23 -5 -8 -8 -7 -8 2 0 16 -21 15
-44 -1 -14 -10 -17 -21 -11 -45 3 -18 13 -32 20 -32 24 0 45 -40 33 -60 -9
-14 -8 -22 7 -36 12 -12 20 -15 22 -7 2 6 17 -1 36 -18 17 -16 40 -29 50 -29
18 0 18 -1 3 -25 -9 -13 -16 -30 -16 -38 0 -8 -7 -14 -15 -14 -11 0 -12 4 -3
14 15 19 1 30 -20 15 -9 -7 -27 -16 -39 -22 -23 -10 -30 -25 -15 -34 4 -2 14
-1 21 3 18 12 61 -11 61 -32 0 -10 5 -15 10 -12 14 8 110 -16 110 -27 0 -5 5
-6 10 -3 6 3 10 1 10 -5 0 -6 5 -8 10 -5 19 12 10 -35 -10 -55 -12 -12 -18
-26 -14 -32 4 -7 3 -8 -4 -4 -14 8 -35 -30 -26 -47 6 -9 4 -9 -7 -1 -47 37
-166 -43 -126 -84 13 -12 18 -11 36 7 12 12 29 21 38 21 13 0 14 -3 5 -12 -15
-15 -16 -31 0 -22 7 4 8 3 4 -5 -8 -13 7 -30 47 -50 21 -11 27 -21 27 -48 0
-33 0 -33 48 -32 26 1 52 6 58 10 8 7 10 2 6 -16 -2 -15 0 -25 7 -25 7 0 9 5
6 10 -3 6 -2 10 4 10 12 0 11 -40 -1 -56 -5 -6 -6 -19 -2 -27 5 -15 9 -15 37
-2 18 9 25 10 16 3 -13 -9 -15 -17 -7 -40 7 -20 7 -33 -2 -43 -6 -8 -9 -19 -5
-25 6 -9 -7 -14 -28 -11 -4 0 -6 -2 -6 -6 1 -5 1 -16 0 -27 -1 -14 -4 -16 -15
-7 -11 9 -15 8 -20 -4 -3 -9 -11 -13 -17 -9 -8 4 -8 1 -2 -12 6 -11 7 -30 3
-44 -4 -14 -3 -35 1 -46 4 -12 5 -32 2 -45 l-6 -24 26 23 c17 17 28 40 35 80
l9 57 2 -50 c2 -27 4 -58 6 -67 2 -10 -3 -37 -10 -61 -19 -64 -37 -194 -30
-216 3 -10 17 -21 30 -24 21 -3 25 0 25 19 0 12 -4 25 -9 28 -16 10 -21 54 -9
83 l12 28 7 -40 7 -40 -1 45 c0 25 2 50 5 55 5 8 18 73 23 110 1 6 4 17 7 25
19 46 38 134 33 153 -5 17 -4 19 4 7 10 -13 11 -13 11 0 0 8 9 33 20 55 11 22
19 43 20 47 0 4 11 32 25 62 14 30 25 61 25 69 0 7 3 17 8 21 4 4 7 11 8 14 0
4 6 20 12 35 7 16 10 33 7 37 -3 5 3 14 14 19 11 6 22 24 26 41 4 16 11 30 17
30 6 0 8 3 5 7 -4 3 -1 13 5 21 7 7 13 23 15 34 2 11 10 26 18 34 19 20 19 25
-1 17 -14 -5 -15 -3 -5 15 6 11 16 22 22 24 9 3 8 10 -1 28 -12 22 -11 23 1
13 12 -10 15 -8 16 9 1 12 7 24 14 28 8 6 8 9 -2 13 -11 4 -11 6 -1 6 7 1 10
6 6 13 -5 7 -2 9 7 6 10 -4 15 4 16 28 2 26 0 32 -12 28 -9 -4 -15 0 -15 10 0
10 6 13 15 10 11 -5 13 -2 9 10 -3 9 0 24 7 33 12 14 12 16 -1 8 -13 -8 -13
-6 -2 8 8 9 11 21 7 27 -5 9 6 14 26 12 3 -1 5 9 4 21 -3 29 5 48 16 41 5 -3
8 -2 7 3 -5 16 24 73 35 66 6 -3 7 -1 3 5 -4 7 -15 12 -24 12 -12 0 -9 4 8 13
14 7 24 20 24 29 -1 11 4 14 13 11 12 -5 14 -1 9 15 -6 17 -2 23 19 28 14 3
24 9 21 12 -3 3 3 12 15 20 11 8 18 20 15 28 -3 9 0 11 11 7 11 -4 14 -2 9 5
-4 7 -2 12 4 12 7 0 23 9 37 19 13 11 31 17 40 14 14 -5 14 -8 -2 -20 -10 -7
-16 -15 -14 -18 3 -2 17 7 31 20 14 13 29 21 32 18 3 -4 6 -1 6 4 0 6 -6 14
-12 17 -7 3 1 3 17 1 17 -3 54 3 83 12 45 14 55 14 62 3 5 -8 24 -16 42 -18
18 -2 39 -8 45 -14 7 -6 20 -8 28 -4 8 3 15 1 15 -5 0 -6 5 -7 11 -4 11 7 56
-34 52 -47 -2 -4 7 -4 20 -1 12 4 39 6 59 6 21 -1 36 2 33 6 -2 4 2 8 10 8 8
0 11 -5 8 -10 -4 -6 0 -8 10 -4 10 4 20 0 26 -11 6 -9 11 -12 11 -5 0 7 10 17
21 24 20 10 21 9 16 -10 -4 -18 -2 -19 14 -10 22 11 62 3 54 -12 -4 -5 4 -5
19 1 21 8 24 7 19 -7 -5 -12 0 -10 15 5 22 22 42 29 42 14 0 -14 50 -8 61 8 9
13 10 13 6 -2 -5 -14 -1 -15 22 -8 18 5 36 3 52 -5 21 -12 25 -11 31 3 6 16 7
16 7 0 1 -12 7 -15 24 -10 12 3 25 10 29 16 5 7 8 4 8 -6 0 -14 9 -18 35 -19
39 -2 35 -1 90 -17 22 -7 54 -12 70 -12 17 0 39 -6 50 -13 11 -7 41 -12 68
-12 26 1 47 -2 47 -7 0 -5 23 -8 50 -7 28 1 53 -1 57 -4 3 -4 12 1 19 11 13
16 13 16 14 0 0 -10 3 -18 8 -19 4 0 26 -2 50 -4 23 -2 48 -8 55 -13 7 -6 26
-11 42 -13 17 -2 35 -7 40 -11 7 -4 12 3 13 19 1 15 4 29 7 31 5 5 9 -48 7
-80 -1 -10 5 -18 13 -18 13 0 14 -4 4 -21 -14 -27 4 -51 24 -30 10 11 9 13 -5
8 -12 -4 -15 -2 -11 8 3 8 8 13 13 10 8 -5 33 45 25 53 -3 3 -5 -1 -5 -9 0 -8
-10 -2 -25 15 -14 16 -25 34 -25 40 0 6 7 2 15 -8 8 -11 15 -14 15 -7 0 7 5 9
10 6 17 -11 11 7 -7 21 -10 7 -13 14 -6 14 6 0 10 8 8 18 -1 9 -7 16 -11 15
-5 0 -15 5 -22 13 -11 12 -9 16 11 23 20 8 23 14 19 42 -3 19 -15 41 -27 51
-16 12 -22 27 -21 47 1 17 -2 27 -8 24 -5 -4 -7 1 -3 11 4 10 3 15 -3 11 -6
-3 -10 5 -10 19 0 38 18 41 38 7 9 -17 23 -31 30 -31 6 0 12 -9 12 -19 0 -31
16 -33 35 -4 16 23 19 24 27 9 5 -9 7 -22 5 -29 -7 -19 12 -47 27 -41 7 3 16
-2 20 -11 3 -9 10 -13 16 -10 6 3 7 0 4 -9 -5 -13 -9 -12 -24 6 l-17 21 -5
-26 c-3 -15 -1 -27 4 -27 5 0 7 -4 3 -9 -3 -5 1 -16 9 -24 9 -8 11 -18 6 -23
-5 -5 -5 -15 0 -24 9 -13 11 -13 20 0 8 12 10 10 10 -10 1 -24 1 -24 15 -6 8
11 15 16 15 11 0 -5 -7 -16 -16 -26 -15 -17 -15 -18 12 -13 18 3 24 1 16 -4
-10 -7 -8 -15 8 -35 12 -15 17 -27 12 -27 -6 0 -13 6 -16 13 -3 6 -4 3 -3 -8
2 -11 8 -19 14 -18 18 4 10 -50 -7 -54 -13 -4 -13 -3 0 6 14 10 7 16 -14 12
-5 -1 -4 4 2 12 14 16 6 27 -19 27 -13 0 -17 -6 -13 -22 3 -13 8 -39 11 -58 5
-34 5 -34 -12 -15 -17 19 -17 19 -3 -4 8 -13 22 -25 32 -27 10 -1 21 -6 24
-10 4 -4 -1 -4 -10 -1 -21 7 -26 -18 -5 -26 9 -4 8 -8 -3 -16 -13 -9 -13 -11
2 -11 14 0 15 -5 8 -30 -6 -22 -5 -28 2 -24 8 5 9 1 5 -10 -4 -9 0 -31 9 -48
8 -16 13 -37 10 -45 -4 -9 -1 -22 6 -30 8 -10 8 -17 1 -21 -5 -4 -12 -17 -16
-30 -4 -17 -2 -21 7 -13 8 7 12 5 12 -7 1 -9 5 -26 9 -36 6 -12 5 -17 -2 -13
-6 4 -9 -9 -8 -36 3 -51 -9 -77 -36 -77 -11 0 -17 -5 -14 -10 4 -6 10 -8 14
-6 3 3 7 -3 8 -12 0 -9 4 -35 8 -57 3 -22 7 -46 7 -52 1 -7 10 -13 20 -13 10
0 18 -5 18 -11 0 -5 -4 -7 -10 -4 -5 3 -10 -1 -10 -10 0 -9 6 -15 13 -12 8 2
11 20 9 48 -2 35 0 40 8 26 6 -9 16 -15 21 -11 6 3 5 -5 -2 -17 -7 -13 -15
-31 -19 -39 -9 -18 -40 -26 -40 -10 0 6 -7 18 -15 26 -13 14 -15 12 -15 -13 0
-16 -5 -34 -11 -40 -7 -7 -6 -12 5 -16 12 -5 16 1 17 21 2 23 2 24 6 5 2 -13
9 -23 14 -23 6 0 7 5 4 10 -3 6 1 10 10 10 13 0 14 -4 4 -22 -10 -18 -9 -20 5
-15 9 4 15 3 15 -1 -4 -22 3 -31 19 -26 16 5 16 5 -1 -6 -9 -6 -15 -16 -11
-22 4 -6 -2 -6 -15 1 -11 7 -21 21 -21 32 0 16 -4 19 -17 15 -9 -4 -20 -1 -25
6 -6 10 -10 10 -17 -2 -6 -9 -6 -19 0 -26 6 -8 6 -14 0 -18 -5 -3 -7 -15 -4
-26 3 -12 0 -20 -7 -20 -8 0 -10 -9 -6 -26 5 -17 3 -23 -4 -19 -6 4 -8 -6 -6
-27 3 -18 5 -37 5 -41 1 -5 5 -6 9 -3 5 3 17 -9 27 -26 15 -26 16 -30 3 -25
-22 8 -29 -2 -17 -24 6 -13 6 -19 -1 -19 -5 0 -10 -7 -10 -16 0 -9 5 -12 12
-8 7 4 1 -8 -12 -26 -19 -27 -20 -32 -7 -27 15 6 16 4 3 -16 -15 -23 -34 -181
-19 -161 4 6 17 8 27 4 17 -6 18 -7 3 -13 -22 -8 -22 -36 1 -54 9 -8 12 -12 6
-9 -16 8 -23 -58 -8 -78 6 -9 14 -13 17 -9 4 3 1 13 -6 21 -8 11 -8 14 0 9 6
-4 13 -4 16 0 2 5 2 2 1 -5 -2 -7 3 -15 11 -17 46 -15 49 -16 39 -23 -12 -8
-26 -164 -15 -178 9 -13 41 -17 41 -5 0 5 9 12 20 16 16 5 18 9 7 26 -6 10
-17 19 -24 19 -7 0 -13 5 -13 11 0 7 7 8 18 4 9 -4 23 -8 29 -8 7 0 15 -9 19
-19 6 -19 29 -24 39 -9 3 5 1 12 -5 16 -6 4 -5 13 2 25 15 24 1 42 -34 45 -30
2 -32 15 -7 45 12 14 19 18 16 9 -3 -9 1 -16 7 -16 10 0 11 7 2 29 -7 18 -18
28 -31 28 -14 0 -16 -3 -7 -8 7 -5 10 -16 6 -25 -5 -15 -8 -15 -21 -1 -18 18
-10 44 16 51 17 4 18 8 8 24 -6 10 -20 19 -30 19 -15 0 -16 3 -7 20 6 11 8 26
4 33 -6 8 -3 8 8 -1 9 -7 20 -26 23 -42 3 -16 13 -31 21 -34 8 -3 14 -13 14
-21 0 -9 4 -13 10 -10 6 3 7 -1 4 -9 -3 -9 -1 -16 5 -16 6 0 11 4 11 9 0 5 15
5 34 1 19 -4 37 -5 40 -3 2 3 15 -4 27 -16 13 -12 26 -21 31 -21 4 0 8 -6 8
-12 1 -16 88 -60 95 -48 10 16 -6 37 -47 61 -56 32 -152 129 -128 129 5 0 10
5 10 11 0 6 -9 8 -20 4 -22 -7 -27 9 -10 35 7 11 5 17 -8 22 -14 5 -12 7 6 7
13 1 20 5 17 11 -3 6 1 13 9 16 23 9 19 34 -5 34 -18 0 -19 2 -9 15 7 8 9 15
4 15 -5 0 -9 23 -9 50 0 28 -3 50 -8 50 -4 0 -5 5 -2 10 13 20 23 9 19 -20 -4
-24 -2 -29 10 -24 10 4 16 1 16 -7 0 -11 2 -11 10 1 6 10 7 -1 4 -33 -4 -38
-2 -47 10 -47 9 0 16 -4 16 -10 0 -6 9 -6 25 0 15 6 26 6 30 -1 4 -5 11 -7 16
-4 5 4 9 1 9 -5 0 -6 3 -9 8 -7 4 3 38 8 76 12 53 5 73 11 93 31 22 23 71 35
58 15 -3 -5 -1 -13 5 -16 6 -4 10 -3 9 2 -1 4 2 17 6 27 6 13 4 21 -3 24 -7 2
-12 11 -12 19 0 9 -6 13 -15 10 -8 -4 -17 -1 -21 5 -4 7 -3 8 4 4 20 -12 13
10 -12 39 -14 16 -22 34 -19 39 3 6 0 6 -7 -1 -9 -9 -19 -9 -33 -2 -15 9 -18
8 -12 -2 6 -9 3 -11 -9 -6 -10 4 -15 3 -11 -3 3 -6 2 -10 -4 -10 -5 0 -13 5
-16 10 -4 6 -11 8 -16 5 -5 -4 -9 1 -9 9 0 9 7 13 20 11 11 -2 20 1 20 6 0 6
4 8 9 5 5 -3 12 1 15 10 3 9 15 14 28 13 32 -5 48 8 48 37 0 13 5 24 10 24 6
0 10 -4 10 -9 0 -4 11 -6 25 -3 16 3 25 11 25 23 0 10 5 21 10 24 15 10 1 26
-20 23 -10 -2 -26 8 -37 21 -11 13 -30 24 -43 25 -22 1 -43 26 -22 26 6 0 8
15 6 33 l-5 32 19 -22 c11 -12 23 -19 26 -15 4 3 4 -1 0 -11 -4 -12 -1 -17 10
-17 9 0 16 4 16 8 0 5 11 14 25 20 14 6 25 18 25 26 0 22 -35 59 -58 63 -25 3
-26 0 -12 -27 7 -13 6 -19 -5 -23 -10 -4 -12 -1 -8 10 4 11 2 14 -5 9 -8 -5
-10 -2 -6 8 4 10 -2 17 -19 21 -18 5 -26 15 -29 37 l-5 30 18 -23 c18 -24 61
-33 106 -24 16 4 21 11 18 26 -3 12 -7 24 -11 28 -4 3 -4 -2 -1 -11 8 -21 -8
-24 -16 -3 -3 8 -15 12 -25 10 -15 -3 -19 1 -15 16 3 10 11 19 18 19 7 0 15 5
17 11 2 5 11 7 21 4 9 -4 14 -11 11 -16 -3 -5 2 -6 10 -3 8 3 23 1 33 -4 24
-13 47 9 30 28 -9 10 -9 11 0 6 9 -5 11 -2 7 8 -3 9 -2 16 4 16 6 0 12 -6 15
-12 2 -7 6 2 9 20 3 21 0 32 -8 32 -6 0 -15 7 -18 16 -3 8 -10 13 -15 9 -5 -3
-12 -1 -15 4 -9 15 -44 1 -49 -20 -6 -21 -15 -23 -36 -10 -11 7 -9 14 12 35
14 14 31 26 37 26 13 0 30 41 22 54 -3 5 -10 3 -16 -5 -6 -8 -20 -22 -32 -31
-19 -17 -20 -16 -22 8 -3 35 -10 45 -30 42 -12 -2 -16 3 -14 19 2 13 -4 26
-16 32 -19 10 -24 31 -23 101 0 28 -2 32 -10 18 -6 -10 -19 -18 -29 -18 -11 0
-20 -5 -20 -11 0 -5 4 -7 10 -4 6 4 7 -1 3 -12 -6 -15 -8 -13 -18 10 -6 15
-15 24 -20 20 -4 -5 -5 -2 -1 5 4 7 12 9 18 6 6 -4 8 -1 6 7 -3 8 -11 13 -17
11 -6 -1 -11 4 -11 10 0 7 -3 22 -6 33 -4 16 0 21 20 23 14 1 26 -3 26 -8 0
-5 -7 -7 -15 -4 -11 5 -13 2 -9 -10 3 -9 10 -14 14 -11 5 3 10 -1 13 -7 2 -7
4 0 4 16 0 28 19 49 35 40 4 -3 8 2 8 10 0 9 -6 16 -14 16 -7 0 -16 9 -19 20
-3 11 0 20 6 20 6 0 2 7 -9 16 -10 8 -13 13 -6 9 7 -4 12 0 12 10 0 9 4 14 9
11 5 -4 8 2 7 11 -2 9 -8 19 -14 21 -7 2 -12 11 -12 20 0 15 2 15 10 2 9 -13
10 -13 11 0 1 8 1 18 0 23 0 4 5 6 11 5 16 -4 18 42 4 61 -8 10 -8 15 2 18 18
7 15 19 -5 19 -10 1 -27 5 -37 9 -16 7 -18 5 -13 -8 3 -9 2 -19 -3 -22 -6 -4
-10 6 -10 21 0 21 4 25 20 21 24 -6 27 15 5 37 -8 8 -15 17 -15 20 0 12 28 6
33 -6 4 -9 6 -8 6 2 0 8 -11 24 -26 34 -17 13 -24 14 -19 5 4 -8 1 -6 -7 3 -8
10 -17 14 -21 10 -5 -4 -7 0 -6 8 1 8 2 29 1 47 -1 25 -5 31 -20 28 -14 -2
-17 2 -15 20 1 17 -4 26 -18 31 -11 3 -22 3 -25 0 -12 -12 -31 30 -26 59 3 22
2 26 -5 15 -6 -8 -8 -18 -6 -22 3 -4 -2 -5 -10 -2 -21 8 -20 21 1 33 14 7 26
1 58 -34 32 -34 45 -41 58 -33 9 5 17 7 17 4 0 -2 33 14 73 35 39 22 84 45
100 51 16 7 27 20 27 31 0 13 5 17 14 14 16 -6 40 16 29 26 -3 4 6 7 21 7 16
0 25 4 21 10 -3 6 5 14 20 20 14 5 28 16 31 25 3 8 10 12 15 9 5 -3 6 2 3 10
-3 9 -10 13 -15 10 -5 -3 -9 -1 -9 5 0 5 3 11 8 14 4 2 2 2 -5 1 -6 -2 -14 2
-17 9 -3 7 -3 0 0 -15 5 -20 2 -28 -8 -28 -19 0 -38 20 -38 42 0 10 -4 18 -10
18 -5 0 -7 -8 -4 -17 5 -15 4 -16 -5 -3 -16 23 -13 30 12 30 32 0 51 40 32 67
-11 14 -16 16 -26 6 -7 -7 -21 -13 -30 -13 -12 0 -16 -6 -12 -21 6 -20 5 -20
-30 -6 -26 12 -38 12 -47 4 -10 -9 -11 -9 -6 1 4 6 2 12 -3 12 -6 0 -11 11
-11 25 0 19 -4 23 -17 18 -10 -3 -24 -13 -30 -21 -11 -13 -13 -13 -19 1 -3 10
-14 17 -23 17 -14 0 -14 -2 -1 -10 13 -9 13 -10 0 -11 -8 0 -23 -2 -32 -4 -10
-2 -18 1 -18 7 0 6 7 8 15 4 9 -3 15 0 15 9 0 9 -10 15 -26 15 -18 0 -24 4
-21 13 3 8 -1 14 -9 14 -8 0 -14 -5 -14 -10 0 -5 -6 -4 -13 2 -8 6 -17 7 -22
3 -4 -4 -2 4 5 18 12 23 12 24 -3 11 -15 -11 -17 -11 -17 1 0 22 -41 15 -57
-9 -12 -17 -11 -22 2 -33 13 -11 15 -10 9 6 -4 15 -4 16 4 5 6 -9 7 -23 2 -36
-6 -15 -4 -29 6 -44 8 -11 13 -21 9 -21 -3 0 1 -15 9 -33 7 -19 12 -52 10 -75
l-4 -41 34 6 c37 6 51 -5 30 -25 -8 -7 -14 -10 -14 -6 0 3 -7 1 -15 -6 -13
-11 -14 -10 -9 4 4 10 1 16 -8 16 -19 0 -45 29 -49 54 -6 32 -27 30 -23 -1 4
-26 3 -26 -13 7 -9 19 -16 39 -14 44 1 5 -7 6 -18 3 -13 -3 -18 -1 -15 8 3 7
-4 16 -15 20 -24 7 -64 59 -53 69 3 4 -5 5 -20 2 -22 -4 -26 -1 -21 12 6 14 4
15 -9 4 -13 -10 -17 -10 -21 2 -4 10 -1 13 9 9 9 -3 14 1 15 13 0 11 3 14 6 7
8 -20 26 -15 18 5 -4 12 -1 11 15 -5 21 -24 40 -30 40 -14 0 5 3 16 6 24 3 8
-2 22 -11 31 -9 9 -14 16 -10 16 14 0 -32 63 -57 77 -15 9 -24 22 -21 30 4 9
0 11 -11 7 -9 -3 -16 -1 -16 5 0 6 -3 10 -7 9 -14 -5 -53 29 -45 38 4 4 0 3
-10 -4 -13 -10 -17 -10 -21 0 -4 10 -6 10 -6 -1 -1 -8 7 -20 17 -27 12 -10 12
-12 2 -9 -9 3 -23 -5 -33 -19 l-19 -24 -20 20 c-19 19 -20 19 -41 1 -13 -10
-17 -12 -11 -3 19 26 13 50 -12 50 -13 0 -26 5 -29 10 -4 6 -16 8 -28 5 -21
-6 -21 -5 -4 9 27 21 18 51 -16 49 -15 -1 -27 2 -27 6 0 13 -50 20 -50 7 -1
-6 -7 0 -14 13 -10 18 -15 20 -19 10 -5 -12 -7 -12 -16 1 -8 12 -11 12 -11 1
0 -8 -6 -11 -16 -7 -8 3 -12 2 -9 -3 3 -5 1 -13 -5 -16 -6 -4 -9 -1 -8 7 2 7
-7 14 -19 16 -12 2 -25 12 -28 23 -4 11 -11 17 -16 14 -5 -3 -21 5 -35 18 -29
27 -20 44 11 21 11 -8 19 -17 18 -19 -5 -8 1 -8 25 -1 12 4 22 14 22 22 0 8 4
12 10 9 6 -4 7 1 3 11 -5 14 -2 16 21 12 30 -6 50 18 39 49 -5 15 -3 16 8 6
19 -19 28 -16 22 8 -4 13 -8 17 -13 9 -4 -6 -11 -11 -16 -11 -22 2 -74 -12
-74 -20 0 -5 -3 -8 -7 -8 -20 3 -34 -2 -28 -11 3 -6 -4 -10 -17 -10 -13 0 -30
-6 -37 -12 -10 -11 -11 -10 -6 5 5 12 2 17 -9 17 -9 0 -16 5 -16 11 0 5 5 7
12 3 7 -4 8 -3 4 4 -7 12 13 52 27 52 4 0 6 -4 3 -9 -4 -5 2 -8 11 -6 10 2 22
4 26 4 4 1 3 10 -3 21 -6 11 -8 26 -4 32 5 7 2 8 -7 3 -12 -8 -12 -6 0 8 11
14 11 18 -2 23 -9 3 -21 3 -27 -1 -5 -3 -10 0 -10 8 0 20 -27 29 -37 13 -5 -7
-16 -16 -27 -19 -12 -5 -17 -14 -13 -27 3 -11 1 -20 -4 -20 -5 0 -9 6 -10 13
0 6 -4 3 -9 -8 -5 -11 -9 -14 -9 -7 -1 6 -9 12 -20 12 -22 0 -44 -23 -33 -35
4 -5 -1 -5 -11 -2 -12 5 -26 -1 -40 -16 -47 -47 -55 -50 -67 -25 -10 20 -10
21 3 6 13 -16 15 -16 38 5 20 19 21 22 6 25 -9 2 -17 12 -17 22 0 10 -7 21
-16 24 -12 5 -15 14 -10 39 6 33 -11 74 -21 49 -2 -6 -10 -9 -16 -5 -22 14
-56 17 -100 10 -15 -2 -25 -2 -23 1 3 2 1 13 -5 23 -7 13 -6 19 1 19 7 0 8 6
0 19 -16 31 -11 38 9 14 24 -29 32 -19 25 29 -5 27 -3 38 6 38 8 0 11 9 7 26
-3 17 0 28 10 31 8 3 12 12 9 20 -3 8 -2 12 3 9 13 -8 19 37 9 64 -6 16 -14
21 -28 17 -11 -3 -20 0 -20 6 0 7 -7 3 -15 -7 -11 -15 -15 -16 -16 -5 0 8 -5
1 -9 -15 -6 -18 -5 -36 1 -48 6 -11 8 -27 4 -36 -4 -9 -9 -28 -12 -42 -3 -14
-6 -32 -8 -40 -2 -8 -4 -19 -4 -23 -1 -5 -24 15 -52 44 -29 30 -48 58 -45 66
3 8 -1 24 -9 37 -14 21 -14 25 0 36 13 11 13 15 3 21 -10 7 -10 9 0 9 6 0 12
8 13 18 0 10 3 12 6 5 8 -21 20 -14 17 10 -1 12 -10 40 -18 62 -9 22 -14 30
-12 18z m-864 -198 c14 -19 14 -19 -2 -6 -10 7 -18 18 -18 24 0 6 1 8 3 6 1
-2 9 -13 17 -24z m834 -11 c3 -8 2 -12 -4 -9 -6 3 -10 10 -10 16 0 14 7 11 14
-7z m-86 -106 c-2 -5 -7 -9 -12 -8 -5 1 -13 -4 -18 -12 -7 -9 -8 -7 -3 7 4 11
8 26 8 32 0 10 4 10 14 1 8 -6 12 -15 11 -20z m19 10 c2 -17 0 -19 -7 -8 -5 8
-6 18 -4 22 8 12 10 10 11 -14z m128 3 c3 -5 2 -12 -3 -15 -5 -3 -9 1 -9 9 0
17 3 19 12 6z m-195 -25 c0 -3 -4 -8 -10 -11 -5 -3 -10 -1 -10 4 0 6 5 11 10
11 6 0 10 -2 10 -4z m-40 -26 c6 -11 8 -20 6 -20 -3 0 -10 9 -16 20 -6 11 -8
20 -6 20 3 0 10 -9 16 -20z m121 -3 c-10 -9 -11 -8 -5 6 3 10 9 15 12 12 3 -3
0 -11 -7 -18z m99 -3 c6 -14 14 -22 20 -19 5 3 10 1 10 -4 0 -6 -4 -11 -10
-11 -5 0 -10 -5 -10 -11 0 -5 5 -7 10 -4 6 3 10 1 10 -4 0 -6 -5 -11 -11 -11
-5 0 -7 -6 -3 -12 6 -9 3 -9 -9 0 -14 12 -15 11 -7 -16 6 -24 5 -30 -5 -26 -9
4 -11 -4 -9 -28 3 -24 1 -29 -6 -18 -5 8 -10 23 -10 33 0 20 -16 23 -24 5 -3
-7 -4 -4 -2 7 2 11 7 34 10 50 5 24 4 26 -4 13 -6 -10 -15 -18 -21 -18 -5 0 1
12 15 27 14 15 22 31 19 37 -4 6 2 4 12 -4 17 -14 18 -14 7 7 -15 27 -15 33
-2 33 6 0 15 -12 20 -26z m-90 -70 c0 -8 -19 -13 -24 -6 -3 5 1 9 9 9 8 0 15
-2 15 -3z m30 -24 c0 -5 -5 -10 -11 -10 -5 0 -7 5 -4 10 3 6 8 10 11 10 2 0 4
-4 4 -10z m350 -90 c0 -5 -5 -10 -11 -10 -5 0 -7 5 -4 10 3 6 8 10 11 10 2 0
4 -4 4 -10z m-78 -50 c-3 -31 -7 -38 -17 -30 -6 5 -15 7 -19 3 -4 -4 -4 1 0
11 5 13 4 17 -4 12 -7 -4 -10 -2 -7 6 3 7 15 18 28 24 12 7 22 12 22 13 0 0
-1 -17 -3 -39z m314 25 c-11 -8 -22 -12 -25 -9 -6 6 19 24 34 24 6 -1 1 -7 -9
-15z m-1191 -35 c3 -6 -1 -7 -9 -4 -18 7 -21 14 -7 14 6 0 13 -4 16 -10z m-78
-22 c-3 -8 -6 -5 -6 6 -1 11 2 17 5 13 3 -3 4 -12 1 -19z m771 -3 c-3 -3 -9 2
-12 12 -6 14 -5 15 5 6 7 -7 10 -15 7 -18z m-698 -5 c0 -5 -2 -10 -4 -10 -3 0
-8 5 -11 10 -3 6 -1 10 4 10 6 0 11 -4 11 -10z m1180 6 c0 -3 -4 -8 -10 -11
-5 -3 -10 -1 -10 4 0 6 5 11 10 11 6 0 10 -2 10 -4z m-1216 -14 c3 -5 -1 -9
-9 -9 -8 0 -12 4 -9 9 3 4 7 8 9 8 2 0 6 -4 9 -8z m1179 -7 c-3 -9 -8 -14 -10
-11 -3 3 -2 9 2 15 9 16 15 13 8 -4z m-1243 -35 c0 -5 -5 -10 -11 -10 -5 0 -7
5 -4 10 3 6 8 10 11 10 2 0 4 -4 4 -10z m1155 -9 c3 -5 2 -12 -3 -15 -5 -3 -9
1 -9 9 0 17 3 19 12 6z m-1741 -9 c3 -5 -1 -9 -9 -9 -8 0 -12 4 -9 9 3 4 7 8
9 8 2 0 6 -4 9 -8z m47 -49 c13 -16 12 -17 -3 -4 -10 7 -18 15 -18 17 0 8 8 3
21 -13z m748 -1 c6 -12 6 -23 0 -33 -9 -12 -10 -12 -6 1 2 8 0 23 -5 33 -5 9
-6 17 -4 17 3 0 10 -8 15 -18z m-119 -12 c-8 -5 -17 -7 -19 -4 -3 3 1 9 9 14
8 5 17 7 19 4 3 -3 -1 -9 -9 -14z m373 2 c4 9 6 9 6 1 2 -20 -16 -24 -30 -5
-13 15 -12 16 3 4 13 -10 17 -10 21 0z m886 -16 c10 -12 8 -13 -8 -9 -12 3
-18 9 -15 14 7 12 10 11 23 -5z m-1239 -11 c10 -13 9 -15 -8 -15 -15 0 -20 5
-16 15 4 8 7 15 9 15 1 0 8 -7 15 -15z m397 -10 c0 -8 -4 -12 -9 -9 -5 3 -6
10 -3 15 9 13 12 11 12 -6z m-627 -15 c-12 -22 -21 -26 -17 -7 2 10 17 26 25
27 1 0 -2 -9 -8 -20z m-289 -26 c3 3 5 -3 6 -14 1 -10 -9 -26 -23 -35 -22 -14
-34 -8 -17 9 4 3 7 15 8 26 1 16 -3 19 -19 14 -15 -4 -17 -3 -7 4 8 6 10 15 6
23 -5 8 3 4 17 -9 13 -12 27 -20 29 -18z m359 22 c0 -2 -7 -7 -16 -10 -8 -3
-12 -2 -9 4 6 10 25 14 25 6z m250 -16 c0 -5 -4 -10 -10 -10 -5 0 -10 5 -10
10 0 6 5 10 10 10 6 0 10 -4 10 -10z m1083 -10 c-3 -11 -9 -18 -13 -15 -4 3
-10 -4 -13 -15 -3 -13 -11 -18 -20 -14 -9 3 -13 12 -10 20 3 8 8 12 12 9 4 -2
14 5 21 16 18 25 30 24 23 -1z m312 1 c-3 -6 -11 -11 -17 -11 -6 0 -6 6 2 15
14 17 26 13 15 -4z m-1945 -16 c0 -8 -4 -15 -10 -15 -5 0 -7 7 -4 15 4 8 8 15
10 15 2 0 4 -7 4 -15z m1500 9 c0 -8 -19 -13 -24 -6 -3 5 1 9 9 9 8 0 15 -2
15 -3z m60 2 c0 -3 -4 -8 -10 -11 -5 -3 -10 -1 -10 4 0 6 5 11 10 11 6 0 10
-2 10 -4z m-1219 -39 c-10 -9 -11 -8 -5 6 3 10 9 15 12 12 3 -3 0 -11 -7 -18z
m-210 -24 c12 -33 -2 -33 -34 0 l-27 28 26 -3 c17 -2 30 -11 35 -25z m1891 15
c-12 -12 -42 -20 -42 -12 0 4 38 22 50 23 2 1 -1 -4 -8 -11z m-2427 -8 c3 -5
1 -10 -4 -10 -6 0 -11 5 -11 10 0 6 2 10 4 10 3 0 8 -4 11 -10z m435 0 c-18
-12 -30 -13 -30 -2 0 4 10 9 22 9 18 2 20 0 8 -7z m-255 -10 c4 -6 11 -7 17
-4 6 4 8 2 5 -4 -8 -12 -47 -4 -47 9 0 12 17 11 25 -1z m2146 -8 c-7 -2 -18 1
-23 6 -8 8 -4 9 13 5 13 -4 18 -8 10 -11z m-1414 -24 c-3 -8 -6 -5 -6 6 -1 11
2 17 5 13 3 -3 4 -12 1 -19z m36 2 c-3 -11 -9 -17 -15 -14 -5 3 -4 12 3 20 16
19 18 18 12 -6z m67 -4 c0 -3 -4 -8 -10 -11 -5 -3 -10 -1 -10 4 0 6 5 11 10
11 6 0 10 -2 10 -4z m-955 -26 c3 -5 1 -10 -4 -10 -6 0 -11 5 -11 10 0 6 2 10
4 10 3 0 8 -4 11 -10z m269 -2 c-5 -8 0 -9 16 -5 16 4 20 3 12 -5 -13 -13 -46
-2 -37 12 3 5 8 10 11 10 3 0 2 -5 -2 -12z m2356 -55 c0 -7 -4 -13 -10 -13 -5
0 -10 12 -10 28 0 21 2 24 10 12 5 -8 10 -21 10 -27z m-2559 12 c16 -9 27 -20
24 -25 -3 -5 4 -24 16 -42 l21 -33 -6 30 c-3 17 -3 24 0 17 3 -6 10 -10 15 -6
31 19 79 -46 57 -77 -7 -12 -11 -11 -21 4 -30 46 -36 50 -21 13 8 -21 13 -41
10 -44 -3 -3 -6 -1 -6 4 0 5 -19 29 -41 54 -23 25 -45 55 -50 68 -11 27 -33
30 -26 2 3 -11 1 -18 -4 -14 -10 6 -13 64 -4 64 4 0 19 -7 36 -15z m985 -20
c13 18 14 17 14 -9 0 -15 -7 -34 -15 -42 -14 -14 -19 -11 -16 9 0 4 -4 7 -10
7 -6 0 -8 -13 -5 -30 2 -19 0 -30 -7 -30 -7 0 -6 -4 3 -10 8 -5 11 -12 7 -16
-3 -4 -13 -1 -22 6 -13 10 -15 9 -15 -9 0 -14 -4 -20 -11 -15 -6 3 -4 -5 5
-18 9 -14 13 -27 10 -31 -9 -8 -37 4 -55 25 -14 16 -18 16 -29 3 -6 -8 -8 -20
-4 -26 4 -7 3 -9 -3 -6 -14 9 -23 57 -11 57 6 0 7 11 4 25 -4 14 -2 25 4 25 5
0 9 6 8 13 -2 6 5 11 14 11 13 -1 16 2 9 14 -10 18 25 52 53 52 10 0 13 6 9
16 -3 9 7 3 22 -12 27 -26 28 -27 41 -9z m88 23 c-18 -31 -57 -78 -64 -78 -10
0 -1 40 12 57 5 6 16 9 24 6 8 -3 14 1 14 11 0 9 5 16 11 16 5 0 7 -6 3 -12z
m43 -1 c0 -7 -7 -19 -14 -26 -12 -11 -14 -10 -11 5 2 15 15 32 24 34 0 0 1 -6
1 -13z m683 -32 c0 6 8 1 17 -10 13 -16 15 -17 10 -2 -4 9 -2 17 2 17 17 0 17
-80 1 -95 -25 -22 -36 -18 -51 17 l-13 32 -12 -29 c-11 -26 -12 -27 -22 -9
-11 18 -11 18 -12 -1 -1 -19 -1 -19 -14 -2 -7 9 -18 17 -23 17 -5 0 -10 7 -10
15 0 8 7 15 14 15 9 0 11 5 7 13 -4 6 -4 9 1 5 4 -4 16 -3 26 2 13 8 21 6 29
-7 7 -12 10 -13 7 -3 -5 20 25 43 35 27 4 -7 8 -7 8 -2z m-704 -15 c8 0 14 -4
14 -10 0 -6 -10 -5 -25 2 -13 6 -21 16 -18 21 5 8 8 7 11 -1 2 -7 10 -12 18
-12z m451 -2 c-3 -8 -6 -5 -6 6 -1 11 2 17 5 13 3 -3 4 -12 1 -19z m-480 -27
c0 -11 -5 -18 -9 -15 -4 3 -5 11 -1 19 7 21 12 19 10 -4z m440 -3 c-3 -8 -6
-5 -6 6 -1 11 2 17 5 13 3 -3 4 -12 1 -19z m-319 -16 c25 -25 33 -50 20 -58
-7 -5 -8 -3 -3 5 5 9 0 12 -16 9 -13 -2 -23 -9 -21 -16 4 -20 -16 -13 -23 8
-8 25 1 41 20 33 8 -3 15 -1 15 5 0 6 -6 9 -12 8 -24 -3 -38 -17 -39 -39 0
-21 -1 -21 -9 -2 -6 15 -1 25 19 42 32 27 27 27 49 5z m1672 2 c0 -8 -19 -13
-24 -6 -3 5 1 9 9 9 8 0 15 -2 15 -3z m-2255 -24 c3 -6 -1 -7 -9 -4 -18 7 -21
14 -7 14 6 0 13 -4 16 -10z m494 -30 c-6 -5 -18 -6 -26 -3 -19 8 -16 11 13 11
17 0 22 -3 13 -8z m-119 -14 c0 -2 -9 -6 -20 -9 -11 -3 -20 -1 -20 4 0 5 9 9
20 9 11 0 20 -2 20 -4z m2062 -25 c2 -17 1 -28 -4 -25 -8 5 -12 54 -4 54 2 0
6 -13 8 -29z m40 11 c4 -12 -1 -18 -13 -18 -19 0 -25 16 -12 29 11 12 20 8 25
-11z m-482 -35 c0 -16 3 -18 9 -8 6 9 11 10 15 2 4 -6 11 -9 16 -6 5 3 11 1
15 -4 3 -6 -3 -8 -13 -6 -15 2 -17 -2 -14 -29 3 -25 0 -33 -12 -33 -9 0 -16 6
-16 14 0 17 -17 17 -23 1 -2 -7 -8 -10 -12 -6 -4 4 3 16 15 26 18 15 20 21 10
27 -9 5 -11 4 -6 -4 5 -8 0 -10 -18 -7 -14 3 -26 0 -26 -5 0 -5 4 -9 9 -9 4 0
7 -12 5 -26 -2 -20 1 -24 13 -20 12 5 13 3 5 -7 -13 -16 1 -43 17 -32 7 3 9
15 6 24 -3 12 0 18 10 18 8 0 15 -5 15 -11 0 -22 20 20 20 43 0 25 12 22 17
-4 5 -27 10 -40 20 -65 6 -14 16 -41 22 -60 l10 -35 -4 35 c-5 31 -4 32 6 13
6 -12 8 -30 5 -40 -7 -16 -10 -15 -31 11 -13 17 -22 33 -19 37 2 5 -4 6 -15 4
-13 -2 -22 3 -26 16 -4 10 -11 19 -17 19 -5 0 -8 -7 -5 -14 4 -10 1 -13 -9 -9
-9 3 -4 -7 10 -22 14 -15 26 -33 26 -39 0 -6 -5 -4 -10 4 -5 8 -10 10 -10 4 0
-6 6 -17 14 -23 20 -17 25 -58 10 -78 -10 -14 -13 -15 -14 -4 0 11 -4 9 -14
-5 -10 -12 -11 -22 -5 -29 7 -6 13 -5 19 5 13 21 18 9 9 -20 -4 -14 -7 -19 -8
-12 -1 7 -5 10 -11 7 -5 -3 -10 -1 -10 4 0 6 -5 11 -11 11 -6 0 -9 -11 -7 -25
2 -13 -1 -23 -7 -22 -5 1 -9 8 -9 14 1 7 -2 10 -7 8 -4 -3 -13 3 -19 14 -6 12
-6 22 -1 25 5 4 11 1 13 -6 3 -7 9 -8 17 -3 11 6 8 11 -10 22 -13 8 -16 12 -6
9 9 -3 17 -1 17 4 0 6 -4 11 -10 11 -5 1 -14 3 -20 4 -5 1 -14 3 -20 4 -15 2
-12 18 5 25 8 3 21 -2 30 -10 17 -18 19 -11 5 16 -7 14 -6 20 6 24 13 5 14 9
4 21 -7 8 -18 15 -26 15 -18 0 -37 37 -24 45 5 3 10 11 10 17 0 7 -6 6 -15 -2
-10 -8 -15 -9 -15 -2 0 6 7 15 15 19 9 5 12 17 9 31 -4 12 -10 20 -13 17 -4
-2 -8 2 -8 10 0 8 4 12 9 9 4 -3 7 5 5 18 -2 19 2 23 23 21 14 -1 19 1 12 3
-6 3 -10 9 -7 14 3 4 -5 6 -17 4 -13 -2 -5 2 17 10 46 16 55 13 55 -17z m375
3 c3 -5 1 -10 -4 -10 -6 0 -11 5 -11 10 0 6 2 10 4 10 3 0 8 -4 11 -10z m114
-42 c-10 -4 -19 -11 -19 -16 0 -5 -13 -7 -29 -4 -16 2 -32 -1 -36 -8 -5 -8
-11 -8 -23 2 -12 10 -14 10 -8 1 4 -7 3 -13 -2 -13 -11 0 -25 30 -14 31 62 5
98 12 100 20 2 5 8 7 13 3 5 -3 9 3 9 12 0 16 1 16 14 -2 13 -17 12 -20 -5
-26z m-49 18 c0 -2 -9 -6 -20 -9 -11 -3 -18 -1 -14 4 5 9 34 13 34 5z m-700
-16 c0 -5 -5 -10 -11 -10 -5 0 -7 5 -4 10 3 6 8 10 11 10 2 0 4 -4 4 -10z
m582 -9 c4 -1 12 -10 18 -21 8 -16 8 -18 -4 -14 -8 3 -17 -2 -20 -14 -4 -10
-13 -19 -22 -19 -8 0 -13 6 -10 14 9 22 -4 41 -25 36 -13 -4 -18 -1 -14 8 4
12 29 15 77 10z m-988 -40 c4 -5 -3 -7 -14 -4 -23 6 -26 13 -6 13 8 0 17 -4
20 -9z m-2046 -36 c-3 -3 -9 2 -12 12 -6 14 -5 15 5 6 7 -7 10 -15 7 -18z
m-111 9 c-3 -3 -12 -4 -19 -1 -8 3 -5 6 6 6 11 1 17 -2 13 -5z m3022 -34 c11
-24 11 -24 -3 -6 -9 11 -16 24 -16 30 0 12 5 7 19 -24z m-928 -13 c-10 -9 -11
-8 -5 6 3 10 9 15 12 12 3 -3 0 -11 -7 -18z m894 -3 c9 -15 12 -23 6 -20 -6 4
-11 2 -11 -5 0 -7 -9 -2 -20 11 -18 21 -19 40 -1 40 5 0 16 -12 26 -26z m-520
-24 c3 -6 -1 -7 -9 -4 -18 7 -21 14 -7 14 6 0 13 -4 16 -10z m-172 -13 c3 -8
-1 -14 -8 -14 -7 0 -11 6 -8 14 3 7 6 13 8 13 2 0 5 -6 8 -13z m585 -18 c-3
-8 -7 -3 -11 10 -4 17 -3 21 5 13 5 -5 8 -16 6 -23z m-772 -1 c3 -11 3 -22 0
-25 -3 -4 -6 0 -6 7 0 7 -7 18 -16 25 -15 11 -15 12 0 12 8 0 18 -9 22 -19z
m258 -31 c17 -7 21 -43 8 -64 -5 -8 -13 -9 -22 -3 -13 8 -12 10 3 10 16 0 16
2 -3 22 -11 13 -20 35 -19 52 0 27 1 28 9 10 4 -12 15 -24 24 -27z m155 39
c-15 -13 -49 -25 -49 -17 0 5 8 12 18 14 24 6 36 8 31 3z m-7 -28 c-8 -8 -8
-15 -1 -24 7 -8 7 -19 1 -30 -8 -14 -10 -13 -16 11 -6 24 6 55 22 55 3 0 1 -5
-6 -12z m35 -23 c0 -8 -4 -12 -9 -9 -5 3 -6 10 -3 15 9 13 12 11 12 -6z
m-2480 -27 c-3 -8 -6 -5 -6 6 -1 11 2 17 5 13 3 -3 4 -12 1 -19z m2081 4 c15
12 16 11 3 -4 -14 -19 -32 -15 -30 5 0 8 2 8 6 -1 4 -10 8 -10 21 0z m-151
-27 c0 -8 -4 -15 -9 -15 -4 0 -8 7 -8 15 0 8 4 15 8 15 5 0 9 -7 9 -15z m231
-10 c-3 -3 -9 2 -12 12 -6 14 -5 15 5 6 7 -7 10 -15 7 -18z m498 14 c3 -6 1
-16 -5 -22 -9 -9 -10 -7 -5 7 5 13 4 17 -4 12 -7 -4 -12 -2 -12 3 0 14 17 14
26 0z m-1799 -21 c-3 -8 -6 -5 -6 6 -1 11 2 17 5 13 3 -3 4 -12 1 -19z m2131
-3 c-3 -3 -9 2 -12 12 -6 14 -5 15 5 6 7 -7 10 -15 7 -18z m-2344 0 c3 -8 1
-15 -4 -15 -6 0 -10 7 -10 15 0 8 2 15 4 15 2 0 6 -7 10 -15z m239 -12 c-7 -2
-13 -10 -13 -17 0 -6 -9 -12 -20 -12 -20 0 -20 1 2 18 13 10 28 17 33 17 6 0
4 -3 -2 -6z m1431 -9 c3 -8 2 -12 -4 -9 -6 3 -10 10 -10 16 0 14 7 11 14 -7z
m569 2 c4 -10 0 -12 -14 -9 -10 3 -16 9 -13 14 8 13 21 11 27 -5z m-206 -22
c3 -8 8 -12 13 -9 4 2 13 -8 19 -22 8 -17 15 -23 19 -16 7 11 62 27 62 18 0
-16 -15 -35 -29 -35 -14 -1 -14 -2 2 -11 9 -5 23 -7 30 -3 9 6 9 5 0 -8 -7 -8
-11 -18 -8 -22 3 -3 0 -2 -7 4 -8 6 -16 6 -25 -1 -10 -9 -13 -5 -13 21 0 19
-3 30 -7 27 -3 -4 -12 -2 -20 5 -11 8 -12 7 -7 -6 3 -9 11 -16 17 -16 6 0 7
-3 4 -7 -4 -3 -18 4 -32 17 -14 13 -25 19 -25 13 0 -6 7 -13 15 -17 8 -3 15
-16 15 -29 0 -13 5 -28 12 -35 9 -9 9 -12 -2 -13 -8 -1 -24 -2 -34 -3 -11 0
-21 -8 -23 -16 -4 -12 -3 -12 5 -1 6 8 12 9 16 3 3 -6 -3 -13 -14 -17 -11 -3
-20 -14 -20 -22 0 -13 -5 -12 -25 7 -14 13 -23 26 -20 28 3 3 12 -3 21 -14 14
-17 15 -18 10 -1 -3 10 -6 22 -6 27 0 5 -10 10 -22 12 -21 3 -21 4 4 9 15 4
26 3 24 0 -2 -3 0 -15 5 -26 6 -16 8 -17 8 -3 1 9 11 20 23 24 20 6 21 7 2 17
-23 13 -55 17 -48 5 8 -13 -9 -9 -30 7 -12 9 -16 20 -12 32 7 17 8 17 21 0 12
-16 13 -16 19 8 4 14 11 25 16 25 5 0 7 -8 4 -17 -4 -14 -2 -13 7 2 7 11 16
23 21 26 13 8 0 36 -17 36 -8 0 -15 -4 -15 -9 0 -4 5 -8 11 -8 19 0 -1 -18
-26 -22 -16 -3 -30 1 -37 11 -12 14 -11 15 6 1 18 -14 19 -13 14 8 -4 12 -2
20 2 17 5 -3 15 1 22 8 14 16 47 10 55 -9z m188 -29 c-1 -19 2 -35 7 -35 7 0
12 21 10 41 -1 7 76 4 83 -3 3 -2 7 -20 11 -39 5 -32 5 -33 -10 -15 -15 19
-16 19 -16 -8 0 -15 4 -25 9 -21 5 3 12 1 16 -5 3 -5 16 -10 28 -10 13 0 17
-3 11 -8 -7 -4 -14 -16 -17 -27 -4 -19 -5 -19 -6 1 -1 25 -24 37 -38 23 -7 -7
-17 -2 -31 15 -11 14 -25 26 -31 26 -6 0 -11 5 -11 12 0 6 -3 8 -6 5 -4 -4 -1
-13 6 -22 8 -10 9 -15 2 -15 -6 0 -16 9 -22 20 -6 11 -15 18 -19 15 -5 -2 -11
4 -14 15 -3 11 -1 20 4 20 5 0 9 5 9 11 0 5 -6 7 -12 4 -7 -4 -2 3 12 14 14
11 26 21 26 21 1 0 1 -16 -1 -35z m-2365 11 c0 -3 -4 -8 -10 -11 -5 -3 -10 -1
-10 4 0 6 5 11 10 11 6 0 10 -2 10 -4z m1791 -29 c-10 -9 -11 -8 -5 6 3 10 9
15 12 12 3 -3 0 -11 -7 -18z m-51 -7 c0 -5 -5 -10 -11 -10 -5 0 -7 5 -4 10 3
6 8 10 11 10 2 0 4 -4 4 -10z m-2490 -44 c-21 -20 -70 -32 -70 -16 0 6 -5 8
-12 4 -7 -4 -8 -3 -4 5 6 9 11 9 24 -1 11 -10 16 -10 19 -1 2 7 10 10 18 7 7
-3 16 -1 20 5 3 6 9 11 13 11 3 0 0 -6 -8 -14z m2810 10 c0 -2 -8 -10 -17 -17
-16 -13 -17 -12 -4 4 13 16 21 21 21 13z m-213 -22 c-3 -3 -12 -4 -19 -1 -8 3
-5 6 6 6 11 1 17 -2 13 -5z m475 -8 c7 4 8 2 4 -5 -4 -6 -4 -18 1 -24 4 -7 0
-4 -9 6 -10 11 -18 24 -17 31 0 7 2 6 6 -2 2 -6 10 -9 15 -6z m68 -26 c5 8 9
7 13 -5 4 -9 3 -13 -2 -10 -5 3 -12 1 -16 -5 -9 -15 -22 -12 -29 6 -3 8 -2 12
4 9 6 -3 10 0 11 7 0 10 2 10 6 -1 4 -10 7 -10 13 -1z m-585 -20 c-3 -5 -12
-10 -18 -10 -7 0 -6 4 3 10 19 12 23 12 15 0z m-111 -8 c3 -5 -1 -9 -9 -9 -8
0 -12 4 -9 9 3 4 7 8 9 8 2 0 6 -4 9 -8z m533 -7 c7 0 12 -4 12 -10 -1 -5 -6
-8 -12 -6 -7 2 -17 4 -23 4 -6 0 -11 6 -11 13 0 7 5 10 11 6 6 -3 17 -7 23 -7z
m-2806 -18 c-10 -9 -11 -8 -5 6 3 10 9 15 12 12 3 -3 0 -11 -7 -18z m2409 -7
c0 -5 -2 -10 -4 -10 -3 0 -8 5 -11 10 -3 6 -1 10 4 10 6 0 11 -4 11 -10z m327
-12 c-3 -8 -6 -5 -6 6 -1 11 2 17 5 13 3 -3 4 -12 1 -19z m-34 -20 c6 -22 5
-22 -8 -4 -17 22 -20 40 -6 32 5 -3 11 -16 14 -28z m71 -3 c-3 -7 -12 -11 -20
-8 -11 4 -12 9 -3 19 14 17 30 9 23 -11z m86 21 c0 -3 -4 -8 -10 -11 -5 -3
-10 -1 -10 4 0 6 5 11 10 11 6 0 10 -2 10 -4z m277 -11 c0 -8 -3 -13 -5 -10
-3 3 -12 -1 -21 -7 -10 -8 -9 -4 3 10 23 26 23 26 23 7z m-217 -9 c0 -3 -4 -8
-10 -11 -5 -3 -10 -1 -10 4 0 6 5 11 10 11 6 0 10 -2 10 -4z m260 -6 c0 -5 -8
-10 -17 -10 -15 0 -16 2 -3 10 19 12 20 12 20 0z m-296 -16 c3 -8 2 -12 -4 -9
-6 3 -10 10 -10 16 0 14 7 11 14 -7z m-80 -9 c3 -8 1 -15 -4 -15 -6 0 -10 7
-10 15 0 8 2 15 4 15 2 0 6 -7 10 -15z m386 -5 c0 -5 -2 -10 -4 -10 -3 0 -8 5
-11 10 -3 6 -1 10 4 10 6 0 11 -4 11 -10z m-3210 -12 c0 -9 4 -8 10 2 5 8 10
12 10 8 0 -3 3 -13 6 -21 7 -19 -40 -11 -57 9 -9 11 -7 14 10 14 11 0 21 -6
21 -12z m2755 -8 c9 7 17 5 26 -7 13 -16 12 -17 -3 -5 -15 12 -19 10 -33 -17
-8 -17 -17 -31 -18 -31 -1 0 -2 16 -3 35 0 24 3 32 10 25 6 -6 14 -6 21 0z
m289 -35 c-7 -16 11 -21 21 -6 7 12 45 10 45 -1 0 -5 -11 -13 -24 -20 -21 -9
-24 -16 -20 -42 4 -24 3 -28 -5 -16 -6 8 -11 22 -11 31 0 9 -8 23 -17 30 -17
13 -17 13 -3 -6 14 -20 14 -20 -7 -2 -12 11 -26 16 -32 12 -7 -3 -8 0 -5 9 3
8 18 17 32 19 15 2 28 5 29 6 1 0 0 -6 -3 -14z m-2601 -21 c3 -3 3 -12 0 -20
-4 -11 -9 -12 -19 -3 -8 6 -11 15 -8 20 6 10 18 12 27 3z m2717 -4 c0 -5 -5
-10 -11 -10 -5 0 -7 5 -4 10 3 6 8 10 11 10 2 0 4 -4 4 -10z m-3154 -38 c-17
-16 -18 -16 -5 5 7 12 15 20 18 17 3 -2 -3 -12 -13 -22z m3011 -7 c0 -8 -4
-12 -9 -9 -4 3 -8 9 -8 15 0 5 4 9 8 9 5 0 9 -7 9 -15z m98 3 c5 4 5 1 1 -6
-6 -10 -11 -10 -22 -1 -8 6 -14 14 -14 16 0 3 6 0 13 -6 8 -6 18 -7 22 -3z
m-3185 -18 c0 -5 -4 -10 -10 -10 -5 0 -10 5 -10 10 0 6 5 10 10 10 6 0 10 -4
10 -10z m-44 -12 c5 -8 2 -9 -11 -4 -14 5 -16 4 -7 -7 9 -10 8 -14 -3 -14 -8
0 -15 9 -15 19 0 20 25 25 36 6z m3039 -27 c3 -5 2 -12 -3 -15 -5 -3 -9 1 -9
9 0 17 3 19 12 6z m-3085 -6 c0 -7 -30 -13 -34 -7 -3 4 4 9 15 9 10 1 19 0 19
-2z m540 -31 c0 -8 -19 -13 -24 -6 -3 5 1 9 9 9 8 0 15 -2 15 -3z m2597 0 c-3
-3 -12 -4 -19 -1 -8 3 -5 6 6 6 11 1 17 -2 13 -5z m34 -20 c5 -15 8 -29 5 -31
-2 -2 -8 10 -14 26 -13 38 -5 41 9 5z m-2691 12 c0 -3 -4 -8 -10 -11 -5 -3
-10 -1 -10 4 0 6 5 11 10 11 6 0 10 -2 10 -4z m-376 -37 c-3 -5 -10 -7 -15 -3
-5 3 -7 10 -3 15 3 5 10 7 15 3 5 -3 7 -10 3 -15z m286 17 c0 -2 -6 -9 -14
-15 -11 -9 -16 -9 -22 0 -4 7 -3 9 4 5 6 -3 13 -2 17 4 6 10 15 14 15 6z
m2730 -6 c0 -5 -5 -10 -11 -10 -5 0 -7 5 -4 10 3 6 8 10 11 10 2 0 4 -4 4 -10z
m-2576 -9 c3 -5 -1 -11 -9 -14 -9 -4 -12 -1 -8 9 6 16 10 17 17 5z m2606 -22
c0 -6 -4 -7 -10 -4 -5 3 -10 11 -10 16 0 6 5 7 10 4 6 -3 10 -11 10 -16z m48
-41 c1 -32 0 -32 -12 -10 -6 12 -16 19 -21 15 -4 -4 -5 -2 -1 5 4 7 12 10 17
7 5 -4 9 -1 9 4 0 6 2 11 3 11 2 0 4 -15 5 -32z m-3148 18 c0 -2 -7 -7 -16
-10 -8 -3 -12 -2 -9 4 6 10 25 14 25 6z m255 -6 c-3 -5 -12 -10 -18 -10 -7 0
-6 4 3 10 19 12 23 12 15 0z m3020 -59 c-9 -29 -33 -27 -31 3 1 18 4 22 14 14
10 -8 11 -6 6 8 -5 15 -4 16 6 8 7 -7 9 -21 5 -33z m-75 -11 c0 -5 -2 -10 -4
-10 -3 0 -8 5 -11 10 -3 6 -1 10 4 10 6 0 11 -4 11 -10z m-290 -6 c0 -8 -19
-13 -24 -6 -3 5 1 9 9 9 8 0 15 -2 15 -3z m325 -14 c3 -5 -1 -10 -10 -10 -9 0
-13 5 -10 10 3 6 8 10 10 10 2 0 7 -4 10 -10z m-3085 -12 c0 -4 -7 -8 -15 -8
-8 0 -15 4 -15 8 0 5 7 9 15 9 8 0 15 -4 15 -9z m2779 -2 c9 -11 8 -15 -4 -20
-9 -3 -13 -2 -10 4 3 6 1 10 -5 10 -6 0 -8 5 -5 10 8 13 10 13 24 -4z m-54
-156 c-3 -5 -12 -7 -20 -3 -21 7 -19 13 6 13 11 0 18 -4 14 -10z m162 -7 c0
-9 -4 -10 -14 -2 -7 6 -13 12 -13 14 0 1 6 2 13 2 8 0 14 -6 14 -14z m163 5
c0 -4 -4 -8 -9 -8 -6 0 -12 4 -15 8 -3 5 1 9 9 9 8 0 15 -4 15 -9z m118 -23
c-3 -3 -9 2 -12 12 -6 14 -5 15 5 6 7 -7 10 -15 7 -18z m45 10 c-3 -9 -8 -14
-10 -11 -3 3 -2 9 2 15 9 16 15 13 8 -4z m-450 -12 c-3 -7 -6 -13 -8 -13 -2 0
-5 6 -8 13 -3 8 1 14 8 14 7 0 11 -6 8 -14z m-72 -6 c-6 -8 -8 -17 -4 -20 3
-4 1 -7 -5 -7 -15 0 -15 13 0 28 16 16 23 15 9 -1z m164 3 c3 -5 1 -10 -4 -10
-6 0 -11 5 -11 10 0 6 2 10 4 10 3 0 8 -4 11 -10z m210 -19 c-6 -21 -25 -20
-25 0 0 6 5 7 10 4 6 -3 10 2 10 11 0 10 3 15 6 11 3 -3 3 -15 -1 -26z m-75
-10 c0 -6 -5 -13 -12 -17 -6 -4 -8 -3 -4 4 3 5 0 13 -6 15 -8 3 -6 6 5 6 9 1
17 -3 17 -8z m-50 -12 c0 -5 6 -7 13 -3 9 5 9 4 0 -6 -6 -7 -16 -9 -22 -6 -14
9 -14 26 -1 26 6 0 10 -5 10 -11z m-227 -26 c-4 -11 -3 -14 5 -9 8 5 10 1 5
-10 -6 -16 -7 -15 -20 2 -17 23 -17 34 2 34 9 0 12 -6 8 -17z m187 11 c0 -2
-9 -8 -20 -14 -15 -8 -18 -8 -14 3 4 11 34 21 34 11z m164 -43 c22 -11 43 -18
47 -15 5 3 6 -2 3 -10 -3 -9 0 -22 8 -30 8 -7 20 -40 27 -72 8 -32 20 -68 28
-80 13 -21 12 -24 -7 -34 -17 -9 -25 -9 -34 1 -8 9 -8 10 3 4 11 -6 13 -4 7
11 -5 10 -11 27 -13 36 -3 10 -9 16 -13 13 -13 -8 -23 16 -12 27 6 6 8 17 5
26 -4 10 -2 13 5 8 7 -4 12 -3 12 3 0 5 -9 9 -19 8 -11 0 -17 -5 -14 -11 3 -5
1 -6 -5 -2 -7 4 -12 16 -12 28 0 17 2 18 15 8 8 -7 15 -8 15 -4 0 5 -9 15 -20
22 -16 10 -20 10 -20 -2 0 -7 -9 -16 -20 -19 -10 -3 -19 -2 -18 2 2 20 -4 30
-16 25 -9 -3 -15 4 -18 20 -4 20 -1 26 13 26 11 0 19 5 19 11 0 5 -4 8 -9 4
-11 -6 -33 29 -24 39 3 3 11 -1 17 -8 6 -8 29 -23 50 -35z m-17 43 c-3 -3 -12
-4 -19 -1 -8 3 -5 6 6 6 11 1 17 -2 13 -5z m153 -41 c0 -7 -5 -13 -12 -13 -6
0 -9 3 -5 6 3 3 1 18 -4 33 -9 24 -8 25 6 7 8 -11 15 -26 15 -33z m-110 6 c0
-5 -4 -9 -8 -9 -5 0 -9 7 -9 15 0 8 4 12 9 9 4 -3 8 -9 8 -15z m-120 1 c0 -5
-7 -10 -16 -10 -8 0 -12 5 -9 10 3 6 10 10 16 10 5 0 9 -4 9 -10z m195 -10 c3
-5 1 -10 -4 -10 -6 0 -11 5 -11 10 0 6 2 10 4 10 3 0 8 -4 11 -10z m59 1 c3
-5 -2 -15 -12 -22 -15 -12 -16 -12 -5 2 7 9 10 19 6 22 -3 4 -4 7 0 7 3 0 8
-4 11 -9z m-254 -19 c0 -5 -7 -9 -15 -9 -8 0 -12 4 -9 9 3 4 9 8 15 8 5 0 9
-4 9 -8z m315 -100 c-8 -8 -25 10 -19 20 4 6 9 5 15 -3 4 -7 6 -15 4 -17z
m-499 6 c4 -7 2 -8 -4 -4 -7 4 -12 2 -12 -4 0 -6 -4 -8 -10 -5 -17 10 -11 -7
8 -22 9 -8 11 -12 5 -8 -7 3 -13 1 -13 -6 0 -7 -6 -5 -14 6 -7 10 -11 26 -9
35 5 18 39 24 49 8z m101 -14 c-3 -3 -2 -17 3 -30 11 -29 5 -32 -10 -4 -10 19
-6 40 7 40 4 0 4 -3 0 -6z m-2908 -25 c-22 -13 -31 -11 -17 5 7 8 17 12 22 9
4 -3 2 -9 -5 -14z m2701 -72 c0 -5 5 -5 12 -1 6 4 8 3 5 -3 -7 -10 -54 -6 -61
6 -2 3 7 6 20 6 13 0 24 -4 24 -8z m-2640 -7 c0 -5 -5 -10 -11 -10 -5 0 -7 5
-4 10 3 6 8 10 11 10 2 0 4 -4 4 -10z m2621 -27 c13 -16 12 -17 -3 -4 -10 7
-18 15 -18 17 0 8 8 3 21 -13z m66 11 c-3 -3 -12 -4 -19 -1 -8 3 -5 6 6 6 11
1 17 -2 13 -5z m468 -32 c19 -11 19 -11 -5 -13 -14 0 -37 -2 -52 -3 -16 -1
-28 2 -28 6 0 4 7 8 16 8 9 0 12 5 8 12 -5 8 -2 9 9 5 10 -4 17 -1 17 6 0 8 3
9 8 1 4 -6 16 -16 27 -22z m-256 -14 c0 -13 -3 -17 -6 -10 -2 6 -9 10 -14 6
-5 -3 -9 -1 -9 5 0 8 9 14 28 20 1 1 2 -9 1 -21z m-102 -3 c0 -8 -4 -12 -9 -9
-5 3 -6 10 -3 15 9 13 12 11 12 -6z m-2852 -5 c3 -5 1 -10 -4 -10 -6 0 -11 5
-11 10 0 6 2 10 4 10 3 0 8 -4 11 -10z m3075 -4 c0 -3 -4 -8 -10 -11 -5 -3
-10 -1 -10 4 0 6 5 11 10 11 6 0 10 -2 10 -4z m30 -9 c0 7 7 10 15 7 8 -4 15
-13 15 -21 0 -11 -5 -13 -17 -8 -10 4 -23 8 -30 8 -6 0 -9 7 -6 15 5 11 7 11
14 0 6 -9 9 -10 9 -1z m-410 -1 c0 -3 -4 -8 -10 -11 -5 -3 -10 -1 -10 4 0 6 5
11 10 11 6 0 10 -2 10 -4z m462 -56 c-22 -22 -24 -20 -16 20 7 30 8 32 20 15
12 -16 11 -21 -4 -35z m-3192 5 c0 -8 -4 -15 -10 -15 -5 0 -7 7 -4 15 4 8 8
15 10 15 2 0 4 -7 4 -15z m2807 0 c0 -8 -4 -12 -9 -9 -5 3 -6 10 -3 15 9 13
12 11 12 -6z m53 11 c0 -2 -8 -10 -17 -17 -16 -13 -17 -12 -4 4 13 16 21 21
21 13z m13 -81 c-3 -9 -8 -14 -10 -11 -3 3 -2 9 2 15 9 16 15 13 8 -4z m-23 1
c0 -3 -4 -8 -10 -11 -5 -3 -10 -1 -10 4 0 6 5 11 10 11 6 0 10 -2 10 -4z m145
-5 c3 -5 2 -12 -3 -15 -5 -3 -9 1 -9 9 0 17 3 19 12 6z m99 1 c3 -5 -1 -9 -9
-9 -8 0 -15 4 -15 9 0 4 4 8 9 8 6 0 12 -4 15 -8z m40 -17 c3 -8 1 -15 -4 -15
-6 0 -10 7 -10 15 0 8 2 15 4 15 2 0 6 -7 10 -15z m91 -13 c17 -12 16 -32 -2
-32 -15 0 -16 -2 -3 -10 12 -8 12 -10 -5 -10 -17 0 -17 -2 -5 -10 8 -5 10 -10
4 -10 -15 0 -59 49 -51 57 4 3 14 -2 22 -13 15 -19 16 -19 14 1 -3 37 4 44 26
27z m-76 -52 c0 -10 -3 -8 -9 5 -12 27 -12 43 0 25 5 -8 9 -22 9 -30z m117 16
c1 -17 -2 -23 -12 -19 -17 6 -18 15 -2 31 7 7 12 12 13 12 0 0 1 -11 1 -24z
m-245 7 c0 -5 2 -17 4 -28 4 -19 3 -19 -10 -1 -8 10 -18 15 -24 12 -5 -4 -13
-1 -17 5 -4 8 -3 9 4 5 7 -4 12 -2 12 3 0 12 30 15 31 4z m-111 -68 c0 -8 -4
-15 -8 -15 -5 0 -9 7 -9 15 0 8 4 15 9 15 4 0 8 -7 8 -15z m-85 -1 c12 -5 14
-9 4 -14 -15 -10 -41 -1 -33 11 6 11 8 11 29 3z m185 -34 c0 -5 -2 -10 -4 -10
-3 0 -8 5 -11 10 -3 6 -1 10 4 10 6 0 11 -4 11 -10z m-170 -35 c11 -13 10 -14
-4 -9 -9 3 -16 10 -16 15 0 13 6 11 20 -6z m45 5 c4 -6 12 -7 18 -4 7 4 9 3 4
-1 -4 -5 1 -18 10 -29 10 -12 14 -18 9 -14 -5 4 -16 2 -25 -5 -14 -10 -14 -10
-4 4 15 19 7 30 -15 22 -10 -4 -14 -3 -10 2 4 4 3 14 -3 22 -8 9 -8 13 -1 13
6 0 14 -5 17 -10z m-58 -37 c-4 -3 -1 -13 6 -22 11 -14 10 -14 -5 -2 -21 15
-23 31 -6 31 6 0 8 -3 5 -7z m-90 -49 c-3 -3 -12 -4 -19 -1 -8 3 -5 6 6 6 11
1 17 -2 13 -5z m113 -4 c0 -5 12 -10 26 -10 14 0 23 4 19 10 -3 6 1 10 9 10
13 0 14 -3 4 -19 -7 -11 -22 -18 -39 -17 -15 0 -25 4 -23 8 3 5 -5 8 -18 8
-18 0 -20 2 -8 10 19 13 30 13 30 0z m-134 -39 c-3 -5 1 -11 9 -15 8 -3 15
-11 15 -18 0 -9 -3 -9 -8 -2 -4 5 -18 18 -32 27 l-24 17 22 0 c13 0 21 -4 18
-9z m174 -5 c0 -9 -30 -14 -35 -6 -4 6 3 10 14 10 12 0 21 -2 21 -4z m-20
-206 c0 -5 -2 -10 -4 -10 -3 0 -8 5 -11 10 -3 6 -1 10 4 10 6 0 11 -4 11 -10z"/>
<path d="M2980 6030 c0 -5 5 -10 11 -10 5 0 7 5 4 10 -3 6 -8 10 -11 10 -2 0
-4 -4 -4 -10z"/>
<path d="M3679 5793 c-13 -16 -12 -17 4 -4 9 7 17 15 17 17 0 8 -8 3 -21 -13z"/>
<path d="M3637 5750 c-3 -11 -1 -20 4 -20 5 0 9 5 9 11 0 5 5 7 11 3 7 -4 10
-1 7 6 -7 22 -25 22 -31 0z"/>
<path d="M4506 5795 c4 -8 11 -15 16 -15 6 0 5 6 -2 15 -7 8 -14 15 -16 15 -2
0 -1 -7 2 -15z"/>
<path d="M4585 5770 c-11 -17 5 -32 21 -19 7 6 11 15 8 20 -7 12 -21 11 -29
-1z"/>
<path d="M5427 5563 c-3 -5 -1 -17 4 -28 6 -17 7 -16 6 8 -1 28 -3 32 -10 20z"/>
<path d="M5386 5405 c4 -8 8 -15 10 -15 2 0 4 7 4 15 0 8 -4 15 -10 15 -5 0
-7 -7 -4 -15z"/>
<path d="M5276 5203 c-6 -14 -5 -15 5 -6 7 7 10 15 7 18 -3 3 -9 -2 -12 -12z"/>
<path d="M5613 4262 c0 -12 5 -22 9 -22 11 0 10 12 -2 30 -7 12 -9 10 -7 -8z"/>
<path d="M3575 6826 c14 -24 27 -58 30 -76 2 -17 9 -38 16 -46 6 -8 8 -14 5
-14 -4 0 -2 -9 4 -20 6 -11 7 -20 2 -20 -14 0 -9 -58 7 -72 11 -11 12 -9 2 10
-11 21 -10 22 14 18 22 -4 26 -2 20 12 -4 13 -3 14 5 6 6 -6 14 -27 16 -45 3
-19 12 -45 21 -58 12 -18 12 -26 3 -35 -9 -8 -14 -8 -17 1 -2 6 -15 10 -28 7
-19 -3 -22 -1 -19 18 4 21 4 21 -5 3 -5 -12 -5 -28 2 -40 6 -11 10 -21 9 -22
-8 -12 4 -36 33 -66 34 -35 49 -84 22 -74 -19 7 -39 -27 -24 -42 6 -6 17 -11
24 -11 7 0 10 -7 7 -15 -4 -8 -1 -15 5 -15 6 0 11 -7 11 -16 0 -8 -4 -12 -10
-9 -14 9 -12 -7 4 -27 12 -16 13 -15 14 13 0 17 6 36 12 44 8 10 7 16 -7 24
-10 6 -13 11 -7 11 7 0 15 7 18 16 5 13 2 15 -15 11 -16 -4 -19 -3 -11 5 6 6
8 17 5 26 -4 8 -2 13 3 9 6 -3 8 8 6 29 -2 19 -8 34 -13 34 -5 0 -9 12 -8 28
l1 27 7 -25 c5 -17 9 -21 15 -12 4 6 4 17 1 22 -3 6 3 10 14 10 10 0 21 6 24
13 7 23 -14 92 -40 126 -15 19 -21 31 -15 27 22 -13 12 19 -13 43 -22 20 -23
25 -10 35 10 8 12 15 5 26 -8 13 -10 12 -10 -3 0 -14 -8 -10 -35 18 -19 20
-39 34 -44 30 -6 -3 -8 0 -5 9 3 8 0 25 -7 38 -7 13 -12 30 -11 38 2 12 1 12
-6 2 -7 -10 -11 -10 -22 3 -26 32 -30 13 -5 -29z m33 -31 c-3 -3 -9 2 -12 12
-6 14 -5 15 5 6 7 -7 10 -15 7 -18z m20 -80 c-3 -3 -9 2 -12 12 -6 14 -5 15 5
6 7 -7 10 -15 7 -18z m19 -27 c-3 -8 -6 -5 -6 6 -1 11 2 17 5 13 3 -3 4 -12 1
-19z"/>
<path d="M3380 6846 c0 -2 7 -7 16 -10 8 -3 12 -2 9 4 -6 10 -25 14 -25 6z"/>
<path d="M4076 6835 c4 -8 11 -15 16 -15 6 0 5 6 -2 15 -7 8 -14 15 -16 15 -2
0 -1 -7 2 -15z"/>
<path d="M3987 6822 c-21 -23 -22 -43 -2 -36 8 4 15 16 16 28 0 19 1 19 10 -4
8 -20 12 -22 19 -10 8 13 10 13 10 1 0 -8 3 -12 6 -8 3 3 1 14 -5 24 -6 10
-11 14 -11 9 0 -5 -6 -3 -13 3 -11 8 -18 7 -30 -7z"/>
<path d="M3320 6815 c0 -8 4 -15 9 -15 6 0 24 -15 42 -32 29 -30 30 -30 11 -4
-12 15 -19 33 -15 39 3 5 1 7 -4 4 -6 -4 -13 0 -17 8 -7 19 -26 19 -26 0z"/>
<path d="M3430 6779 c0 -14 37 -52 37 -38 0 8 2 20 4 28 3 8 -5 14 -18 16 -13
1 -23 -2 -23 -6z"/>
<path d="M3670 6760 c0 -5 5 -10 11 -10 5 0 7 5 4 10 -3 6 -8 10 -11 10 -2 0
-4 -4 -4 -10z"/>
<path d="M3430 6715 c0 -3 7 -17 16 -31 9 -13 14 -27 11 -31 -4 -3 2 -18 13
-34 15 -20 17 -29 8 -32 -7 -3 -8 -6 -3 -6 6 0 16 3 23 7 9 6 5 23 -19 70 -17
34 -35 62 -40 62 -5 0 -9 -2 -9 -5z"/>
<path d="M4177 6675 c-4 -8 -2 -17 3 -20 6 -4 10 3 10 14 0 25 -6 27 -13 6z"/>
<path d="M3507 6633 c8 -23 33 -60 33 -50 0 11 -29 67 -35 67 -2 0 -2 -8 2
-17z"/>
<path d="M4416 6591 c-13 -15 -14 -20 -4 -25 7 -3 2 -3 -10 0 -21 5 -23 4 -13
-15 7 -12 14 -21 17 -21 3 0 3 4 0 9 -3 5 1 12 10 15 9 3 14 13 11 20 -3 8 -1
17 6 19 7 2 9 7 6 11 -3 3 -14 -2 -23 -13z"/>
<path d="M3660 6586 c0 -8 4 -17 9 -20 5 -4 7 3 4 14 -6 23 -13 26 -13 6z"/>
<path d="M3610 6576 c0 -2 8 -10 18 -17 15 -13 16 -12 3 4 -13 16 -21 21 -21
13z"/>
<path d="M3510 6540 c0 -5 5 -10 10 -10 6 0 10 5 10 10 0 6 -4 10 -10 10 -5 0
-10 -4 -10 -10z"/>
<path d="M3610 6531 c0 -6 4 -12 8 -15 5 -3 9 1 9 9 0 8 -4 15 -9 15 -4 0 -8
-4 -8 -9z"/>
<path d="M4546 6445 c4 -8 8 -15 10 -15 2 0 4 7 4 15 0 8 -4 15 -10 15 -5 0
-7 -7 -4 -15z"/>
<path d="M4000 6431 c0 -4 11 -18 25 -31 14 -13 25 -21 25 -17 0 3 -11 17 -25
31 -14 14 -25 22 -25 17z"/>
<path d="M5583 6408 c3 -15 -25 -18 -35 -3 -5 6 -8 5 -8 -3 0 -15 20 -36 38
-39 6 -2 12 1 12 7 0 5 8 7 18 3 9 -3 14 -3 10 2 -4 4 -3 16 3 26 8 16 6 19
-16 19 -14 0 -24 -5 -22 -12z"/>
<path d="M3683 6375 c0 -8 4 -12 9 -9 5 3 6 10 3 15 -9 13 -12 11 -12 -6z"/>
<path d="M5670 6361 c0 -12 -70 -56 -92 -57 -40 -3 -41 -4 -28 -19 11 -13 10
-14 -4 -9 -11 4 -16 1 -16 -10 0 -9 -5 -16 -11 -16 -5 0 -7 5 -4 11 4 5 -10 3
-30 -5 -21 -9 -47 -16 -59 -15 -11 0 -15 3 -8 6 16 6 15 21 -2 39 -12 11 -24
12 -55 5 -23 -5 -41 -5 -41 -1 0 15 -62 18 -67 3 -4 -10 -9 -11 -18 -3 -7 6
-19 8 -28 5 -13 -5 -12 -10 7 -29 11 -12 25 -20 30 -18 5 3 7 -2 3 -11 -4 -11
-2 -14 8 -10 8 3 12 10 8 16 -4 6 0 8 10 4 10 -3 17 -2 17 4 0 23 23 1 35 -34
10 -29 10 -37 0 -37 -8 0 -11 -13 -9 -41 4 -53 -4 -73 -22 -59 -10 9 -11 7 -1
-14 6 -13 14 -21 17 -17 8 12 44 10 52 -3 5 -7 8 -6 8 4 1 12 3 11 14 -3 10
-13 16 -15 21 -6 5 7 1 16 -9 21 -9 5 -16 13 -16 18 0 16 30 11 36 -5 4 -8 10
-12 15 -9 5 3 7 -1 5 -8 -14 -45 -16 -67 -4 -63 7 3 20 -8 29 -23 16 -28 83
-68 105 -64 7 1 14 -4 18 -13 6 -16 32 -20 40 -6 4 5 -4 7 -16 4 -19 -4 -20
-3 -8 6 13 9 13 11 -2 11 -9 0 -20 5 -24 12 -4 6 -3 8 4 4 6 -3 15 2 21 11 9
16 12 16 21 3 6 -10 10 -11 10 -3 0 8 11 11 33 7 27 -4 29 -3 10 5 -22 10 -32
23 -15 19 13 -3 66 14 88 27 12 8 36 15 55 17 31 3 33 6 36 41 2 42 -16 58
-42 37 -12 -10 -18 -10 -30 0 -8 7 -15 9 -15 4 0 -5 -4 -3 -9 5 -6 9 -11 10
-15 2 -4 -6 -2 -11 3 -11 18 0 12 -14 -15 -33 -13 -10 -24 -15 -23 -10 4 20
-3 22 -26 7 -15 -10 -37 -14 -55 -12 -17 3 -33 0 -37 -5 -3 -5 -9 -3 -14 4 -6
10 -9 6 -9 -13 0 -35 -22 -37 -44 -3 -19 28 -20 39 -5 29 8 -5 10 6 7 34 -2
22 0 38 4 36 4 -2 12 4 18 13 11 17 11 17 6 -1 -5 -14 -2 -17 10 -12 8 3 18 6
21 6 3 0 0 7 -7 15 -7 8 -11 15 -9 16 2 0 15 3 29 5 13 2 28 10 32 17 4 6 8 8
8 3 0 -6 6 -2 13 8 7 9 22 18 34 19 12 0 21 4 20 7 -1 3 5 16 12 29 10 18 19
22 43 19 19 -3 32 0 35 9 6 16 23 18 23 2 0 -6 7 -17 15 -25 8 -9 15 -12 15
-8 0 3 6 1 14 -5 7 -6 21 -9 30 -5 18 7 22 24 6 24 -5 0 -10 9 -10 20 0 13
-10 24 -26 30 -18 7 -24 15 -20 26 3 8 2 12 -4 9 -6 -3 -10 -1 -10 5 0 6 -4 9
-9 6 -4 -3 -7 -18 -5 -33 l4 -28 -12 27 c-12 27 -55 49 -44 23 3 -8 1 -17 -4
-20 -6 -4 -10 -1 -10 5 0 8 -11 9 -32 5 -30 -5 -31 -4 -15 8 21 17 22 27 2 27
-8 0 -15 -4 -15 -9z m90 -61 c0 -5 -2 -10 -4 -10 -3 0 -8 5 -11 10 -3 6 -1 10
4 10 6 0 11 -4 11 -10z m-380 -55 c-7 -8 -9 -15 -4 -15 5 0 1 -5 -9 -11 -27
-16 -30 -6 -7 19 23 25 39 30 20 7z m108 -136 c-2 -7 -17 -13 -33 -15 -24 -2
-27 -1 -12 7 9 6 22 7 27 4 6 -3 10 -1 10 4 0 6 3 11 6 11 3 0 4 -5 2 -11z
m-121 -41 c-3 -8 -6 -5 -6 6 -1 11 2 17 5 13 3 -3 4 -12 1 -19z m170 -134 c-3
-3 -12 -4 -19 -1 -8 3 -5 6 6 6 11 1 17 -2 13 -5z"/>
<path d="M3635 6340 c-3 -5 -1 -10 4 -10 6 0 11 5 11 10 0 6 -2 10 -4 10 -3 0
-8 -4 -11 -10z"/>
<path d="M4835 6331 c-8 -15 3 -31 21 -31 9 0 14 7 12 17 -4 20 -24 28 -33 14z"/>
<path d="M3035 6240 c-3 -5 1 -10 10 -10 9 0 13 5 10 10 -3 6 -8 10 -10 10 -2
0 -7 -4 -10 -10z"/>
<path d="M4900 6229 c0 -5 5 -7 10 -4 6 3 10 8 10 11 0 2 -4 4 -10 4 -5 0 -10
-5 -10 -11z"/>
<path d="M5065 6221 c3 -5 1 -12 -5 -16 -5 -3 -10 -2 -10 2 0 5 -9 9 -20 9
-11 0 -20 -4 -20 -9 0 -4 -5 -5 -11 -2 -6 4 -5 -2 3 -14 10 -17 14 -18 21 -6
5 10 20 13 50 10 23 -2 34 -2 24 1 -9 3 -15 9 -12 14 3 4 -2 11 -11 14 -8 3
-12 2 -9 -3z"/>
<path d="M3763 6204 c0 -8 7 -14 14 -14 8 0 11 -4 8 -10 -3 -5 -1 -10 4 -10
18 0 12 24 -7 37 -15 9 -19 8 -19 -3z"/>
<path d="M5961 6153 c-7 -13 -10 -14 -11 -4 0 24 -13 2 -15 -25 0 -14 5 -30
12 -36 7 -6 13 -17 13 -24 0 -14 20 -20 20 -6 1 4 5 26 9 49 6 31 5 46 -5 53
-9 8 -15 6 -23 -7z"/>
<path d="M4193 6153 c-16 -6 -17 -33 -1 -33 6 0 8 3 5 7 -4 3 -2 12 4 20 12
14 11 14 -8 6z"/>
<path d="M2460 6106 c0 -2 7 -7 16 -10 8 -3 12 -2 9 4 -6 10 -25 14 -25 6z"/>
<path d="M5847 6017 c-15 -16 -25 -32 -23 -36 6 -10 -54 -56 -73 -56 -7 0 -21
-11 -30 -25 -11 -17 -12 -22 -2 -16 10 6 12 4 7 -10 -3 -11 -1 -26 4 -34 7
-12 10 -12 10 -1 0 7 6 11 15 7 9 -3 15 0 15 10 0 8 5 12 10 9 6 -3 10 -2 10
4 0 6 7 8 15 4 21 -8 54 24 50 48 -2 10 0 19 6 19 5 0 9 6 9 14 0 7 7 19 15
26 8 7 15 18 15 24 0 6 -5 4 -10 -4 -8 -13 -10 -13 -10 2 0 9 5 18 11 20 7 2
7 7 -2 14 -10 7 -21 2 -42 -19z"/>
<path d="M2590 6000 c12 -16 24 -30 26 -30 3 0 -4 14 -16 30 -12 17 -24 30
-26 30 -3 0 4 -13 16 -30z"/>
<path d="M5145 6020 c3 -5 8 -10 11 -10 2 0 4 5 4 10 0 6 -5 10 -11 10 -5 0
-7 -4 -4 -10z"/>
<path d="M5172 6019 c2 -6 8 -10 13 -10 5 0 11 4 13 10 2 6 -4 11 -13 11 -9 0
-15 -5 -13 -11z"/>
<path d="M4440 5911 c0 -6 4 -13 10 -16 6 -3 7 1 4 9 -7 18 -14 21 -14 7z"/>
<path d="M5942 5908 c2 -6 10 -14 16 -16 7 -2 10 2 6 12 -7 18 -28 22 -22 4z"/>
<path d="M6076 5713 c-4 -9 -2 -21 4 -27 7 -7 10 -6 10 3 0 7 5 9 11 5 8 -4 8
0 0 15 -14 25 -17 26 -25 4z"/>
<path d="M6129 5718 c-5 -18 -6 -38 -1 -34 7 8 12 36 6 36 -2 0 -4 -1 -5 -2z"/>
<path d="M5081 5244 c0 -11 3 -14 6 -6 3 7 2 16 -1 19 -3 4 -6 -2 -5 -13z"/>
<path d="M5840 5238 c-18 -6 -19 -13 -14 -50 4 -24 14 -50 24 -58 10 -8 23
-25 29 -37 10 -19 9 -23 -4 -23 -12 0 -16 -8 -13 -27 2 -22 -1 -28 -16 -26
-15 1 -17 -4 -12 -29 5 -27 4 -29 -10 -18 -13 12 -14 10 -3 -16 7 -16 18 -36
23 -45 6 -8 -1 -2 -16 13 -19 19 -28 23 -28 14 0 -15 48 -66 62 -66 5 0 8 -7
8 -16 0 -10 -6 -14 -14 -11 -8 3 -17 -1 -20 -9 -3 -8 -1 -14 4 -14 17 0 11
-28 -7 -33 -17 -4 -17 -5 -1 -6 12 -1 15 -6 11 -18 -4 -10 -2 -14 4 -10 6 4 9
-4 7 -22 -2 -20 4 -35 21 -51 21 -20 25 -21 25 -6 0 10 -5 14 -12 10 -7 -4 -8
-3 -4 5 4 6 12 9 17 6 5 -4 9 -1 9 4 0 6 5 11 10 11 6 0 8 -12 6 -26 -4 -20
-2 -23 8 -15 7 6 17 7 21 3 5 -4 5 -1 1 6 -4 6 -3 12 1 12 5 0 9 10 10 21 3
32 41 68 69 64 23 -2 23 -2 7 26 -9 15 -21 25 -26 22 -6 -3 -7 -1 -3 6 4 6 12
9 17 6 5 -4 9 -1 9 4 0 19 17 12 28 -11 10 -21 10 -21 9 9 -1 17 -6 28 -11 25
-5 -3 -31 -6 -58 -6 -34 -1 -48 3 -48 12 0 7 4 11 9 7 19 -11 26 20 22 99 -1
17 -41 18 -41 1 0 -5 -5 -2 -11 8 -5 9 -19 17 -29 17 -25 0 -25 11 0 40 16 18
17 25 8 31 -15 10 -21 56 -8 64 5 3 5 18 0 34 -4 16 -6 32 -3 34 3 3 2 15 -2
26 -6 20 -27 23 -65 9z m98 -298 c-9 -14 -16 -16 -25 -8 -19 16 -16 23 12 26
22 2 24 0 13 -18z"/>
<path d="M5755 5160 c-3 -5 -1 -10 4 -10 6 0 11 5 11 10 0 6 -2 10 -4 10 -3 0
-8 -4 -11 -10z"/>
<path d="M5167 5069 c-9 -6 -17 -15 -17 -21 0 -6 3 -8 7 -5 3 4 14 0 23 -8 14
-13 16 -12 18 10 2 29 -8 37 -31 24z"/>
<path d="M4995 4910 c16 -16 23 -30 17 -30 -10 0 -10 -5 -2 -20 9 -16 8 -20
-7 -21 -11 0 -13 -3 -5 -6 6 -2 12 -13 12 -24 0 -13 6 -18 20 -16 11 2 22 6
26 9 3 4 13 4 22 0 12 -4 10 2 -7 26 -12 18 -27 32 -32 32 -5 0 -9 11 -9 23 0
26 -28 57 -50 57 -8 0 -2 -12 15 -30z"/>
<path d="M2157 4839 c7 -7 15 -10 18 -7 3 3 -2 9 -12 12 -14 6 -15 5 -6 -5z"/>
<path d="M5003 4758 c2 -13 8 -32 12 -42 6 -14 5 -17 -3 -12 -16 10 -15 -4 6
-74 13 -45 22 -60 36 -60 12 0 16 5 12 16 -3 9 -6 18 -6 20 0 2 -7 4 -15 4
-10 0 -15 10 -15 28 0 21 2 24 10 12 7 -11 10 -11 10 -2 0 8 5 10 13 6 6 -4 4
2 -5 13 -19 21 -25 73 -8 73 5 0 2 9 -7 20 -24 28 -47 26 -40 -2z"/>
<path d="M5050 4719 c0 -5 5 -7 10 -4 6 3 10 8 10 11 0 2 -4 4 -10 4 -5 0 -10
-5 -10 -11z"/>
<path d="M5980 4690 c-6 -11 -8 -20 -6 -20 3 0 10 9 16 20 6 11 8 20 6 20 -3
0 -10 -9 -16 -20z"/>
<path d="M5985 4658 c-4 -10 -17 -15 -36 -13 -16 1 -29 -2 -29 -8 0 -8 -3 -8
-11 0 -6 6 -17 9 -25 6 -10 -4 -9 -10 6 -26 11 -11 20 -27 20 -34 0 -16 5 -16
32 -2 16 9 25 6 45 -13 l26 -23 -6 23 c-4 18 -1 22 19 22 13 0 24 6 24 13 0
25 -13 57 -22 57 -5 0 -6 -6 -2 -12 4 -7 -2 -5 -14 6 -18 16 -22 17 -27 4z"/>
<path d="M6042 4569 c2 -7 10 -15 17 -17 8 -3 12 1 9 9 -2 7 -10 15 -17 17 -8
3 -12 -1 -9 -9z"/>
<path d="M5960 4520 c-10 -6 -11 -12 -5 -19 6 -6 14 -4 22 4 15 17 3 27 -17
15z"/>
<path d="M3142 4194 c-19 -13 -25 -14 -39 -2 -9 7 -14 8 -10 2 8 -13 121 -84
135 -84 6 0 20 -12 31 -26 19 -24 19 -27 4 -52 l-17 -27 23 23 c13 13 26 21
29 17 4 -3 0 -10 -8 -15 -11 -7 -8 -10 13 -10 16 0 26 -4 23 -9 -3 -5 -16 -7
-29 -5 -12 3 -8 -1 12 -10 18 -9 41 -16 50 -17 12 0 11 -2 -4 -8 -11 -5 -23
-7 -26 -5 -4 2 -24 6 -45 9 -22 3 -55 8 -74 11 -54 10 -180 12 -180 4 0 -4 15
-10 34 -12 19 -2 32 0 30 4 -3 4 8 6 23 4 15 -3 51 -7 78 -11 51 -6 133 -31
149 -46 11 -10 -14 -6 -31 4 -7 5 -13 4 -13 -2 0 -12 -32 -2 -42 13 -5 7 -8 6
-8 -3 0 -10 -3 -11 -14 -2 -8 7 -17 8 -20 3 -3 -5 -33 -9 -66 -8 -33 0 -60 -1
-60 -4 0 -5 -101 -31 -132 -34 -3 -1 -10 -4 -14 -8 -4 -5 -16 -8 -26 -8 -11 0
-16 -4 -13 -10 3 -5 28 -10 55 -10 27 0 55 -6 62 -13 35 -34 214 -102 224 -86
3 5 11 6 17 2 6 -4 43 -12 81 -17 38 -6 71 -17 74 -23 2 -7 -3 -13 -12 -13 -9
0 -16 5 -16 11 0 5 -5 7 -11 3 -20 -12 14 -23 65 -21 32 1 50 -3 56 -13 20
-32 15 52 -6 94 -10 22 -11 26 0 17 7 -6 19 -29 26 -51 7 -22 18 -40 24 -41 6
0 19 -2 28 -4 20 -4 24 6 23 62 0 29 3 39 11 32 8 -6 13 0 18 22 4 23 2 35
-10 44 -14 9 -14 14 -4 20 9 5 11 4 6 -3 -4 -7 -4 -12 1 -12 13 1 59 29 48 30
-5 0 -11 11 -11 25 -1 18 2 23 10 18 7 -4 3 0 -7 10 -11 9 -15 17 -10 17 5 0
10 13 10 30 0 16 -4 27 -9 24 -4 -3 -5 2 -2 10 4 10 -4 16 -24 21 -24 5 -28
10 -25 29 3 15 -1 25 -12 30 -13 4 -15 2 -10 -13 3 -11 1 -22 -5 -26 -5 -3
-10 1 -10 9 0 9 -7 13 -20 11 -13 -2 -20 2 -20 11 0 8 -5 14 -11 14 -5 0 -7 5
-4 10 6 10 -6 14 -39 10 -11 -1 -15 3 -12 9 4 6 1 9 -7 5 -8 -3 -18 -1 -22 5
-3 6 -15 11 -26 11 -10 0 -19 3 -19 8 0 4 -21 8 -47 10 -26 1 -50 7 -54 13 -4
8 -8 7 -12 -2 -3 -11 -7 -11 -17 -2 -14 13 -43 6 -34 -8 3 -5 -4 -9 -15 -9
-12 0 -20 5 -18 11 4 19 -17 20 -41 3z m393 -143 c-9 -8 -36 -10 -30 -2 2 4
11 8 20 8 8 0 13 -3 10 -6z m-405 -176 c0 3 6 0 14 -7 8 -7 12 -16 10 -20 -2
-3 0 -18 6 -32 5 -14 6 -26 2 -26 -19 0 -72 42 -73 57 0 10 -3 13 -5 6 -6 -13
-34 -6 -34 8 0 5 3 8 8 8 23 -4 42 2 36 12 -4 8 0 8 15 0 11 -7 21 -9 21 -6z
m288 -65 c11 -18 9 -21 -13 -30 -50 -19 -73 -7 -40 20 8 7 15 19 15 26 0 18
22 8 38 -16z m44 -52 c-9 -9 -15 -9 -24 0 -10 10 -10 15 2 22 20 12 38 -6 22
-22z m92 16 c3 -8 2 -12 -4 -9 -6 3 -10 10 -10 16 0 14 7 11 14 -7z"/>
<path d="M2465 4140 c-3 -6 1 -7 9 -4 9 3 16 1 16 -6 0 -6 5 -8 11 -4 8 4 7 9
-2 15 -18 11 -26 11 -34 -1z"/>
<path d="M5271 4124 c0 -11 3 -14 6 -6 3 7 2 16 -1 19 -3 4 -6 -2 -5 -13z"/>
<path d="M2270 4112 c0 -20 27 -27 75 -22 49 6 50 6 22 18 -18 8 -34 9 -45 3
-10 -6 -23 -6 -34 0 -11 6 -18 6 -18 1z"/>
<path d="M2185 4074 c-38 -19 -77 -41 -85 -49 -12 -13 -12 -15 7 -15 12 0 28
6 36 14 7 8 37 27 65 42 29 15 52 32 52 36 0 10 7 13 -75 -28z"/>
<path d="M2996 3982 c-3 -5 1 -9 9 -9 8 0 15 4 15 9 0 4 -4 8 -9 8 -6 0 -12
-4 -15 -8z"/>
<path d="M2954 3965 c-10 -8 -14 -14 -9 -15 15 0 40 18 34 24 -3 3 -14 -1 -25
-9z"/>
<path d="M4383 3960 c-13 -5 -23 -15 -23 -22 -1 -8 -7 -5 -16 7 -18 24 -45 11
-51 -24 -3 -21 -2 -22 14 -10 16 13 17 12 5 -3 -8 -9 -20 -14 -28 -11 -11 4
-12 9 -3 19 9 11 6 14 -19 14 -21 0 -35 -7 -42 -19 -12 -24 -13 -34 -1 -26 5
3 13 0 17 -6 4 -7 3 -9 -3 -6 -6 4 -19 -1 -29 -9 -10 -9 -14 -13 -8 -10 13 7
25 -29 17 -50 -3 -8 -9 -11 -14 -8 -5 3 -9 -1 -9 -9 0 -8 -9 -17 -20 -20 -24
-6 -26 8 -5 29 19 20 20 41 1 25 -9 -8 -16 -8 -20 -2 -4 5 -2 13 4 16 8 5 7
11 -1 21 -15 18 -33 18 -26 0 6 -15 -27 -47 -44 -43 -6 1 -14 -4 -17 -12 -2
-8 0 -11 6 -7 6 3 19 -4 29 -16 10 -13 28 -28 38 -34 21 -12 27 -54 10 -66 -6
-4 -2 -8 8 -8 18 0 22 -10 8 -25 -14 -16 -22 -65 -11 -66 5 -1 14 -2 18 -3 5
0 16 -9 26 -18 10 -10 33 -19 52 -19 19 -1 40 -2 47 -3 6 0 37 -9 67 -19 30
-11 95 -25 145 -32 l89 -13 32 36 32 37 27 -30 c15 -16 24 -25 21 -18 -4 7 4
6 24 -3 30 -15 56 -11 44 7 -9 15 -140 99 -154 99 -8 0 -21 7 -30 15 -9 8 -36
16 -61 17 -24 2 -49 7 -56 11 -6 4 -14 3 -18 -2 -6 -11 -36 -3 -47 13 -6 8
-10 7 -16 -1 -10 -16 -26 -3 -30 22 -2 17 -1 18 7 4 11 -17 66 -15 77 3 3 5
11 5 19 -2 7 -6 16 -7 19 -2 3 5 30 7 61 5 31 -2 54 0 51 5 -2 4 -19 9 -36 10
-37 3 -90 28 -90 43 0 6 -6 7 -12 3 -10 -5 -10 -4 -1 6 6 7 9 18 6 25 -5 14
30 38 41 28 3 -3 6 -1 6 5 0 5 -6 13 -12 15 -13 5 37 11 80 9 14 -1 20 3 16
10 -4 7 -3 8 4 4 19 -11 34 3 19 18 -6 8 -15 12 -19 10 -4 -2 -9 0 -13 6 -3 5
-15 10 -26 10 -11 0 -17 5 -14 10 8 13 -11 13 -36 -1 -11 -5 -17 -14 -14 -19
3 -4 -4 -6 -15 -3 -11 3 -17 9 -14 14 3 5 -8 12 -25 15 -33 7 -37 15 -21 45
12 21 1 24 -37 9z m-106 -76 c-3 -3 -12 -4 -19 -1 -8 3 -5 6 6 6 11 1 17 -2
13 -5z m102 -7 c16 1 20 -2 11 -7 -19 -12 -3 -29 23 -24 12 2 15 1 7 -2 -8 -4
-24 -11 -34 -17 -15 -7 -18 -6 -13 7 8 19 -29 47 -51 39 -10 -5 -13 -2 -8 6 5
7 15 9 25 5 9 -4 27 -7 40 -7z m71 -7 c0 -5 -4 -10 -9 -10 -6 0 -13 5 -16 10
-3 6 1 10 9 10 9 0 16 -4 16 -10z m110 6 c0 -2 -6 -9 -14 -15 -11 -9 -16 -9
-22 0 -4 7 -3 9 4 5 6 -3 13 -2 17 4 6 10 15 14 15 6z m-275 -46 c-3 -5 1 -10
9 -10 9 0 16 -4 16 -10 0 -11 -11 -13 -34 -4 -15 6 -11 34 6 34 5 0 6 -4 3
-10z m58 -23 c5 -14 -27 -40 -36 -30 -7 6 14 43 24 43 4 0 9 -6 12 -13z m-82
-40 c-10 -9 -11 -8 -5 6 3 10 9 15 12 12 3 -3 0 -11 -7 -18z m33 7 c3 -8 2
-12 -4 -9 -6 3 -10 10 -10 16 0 14 7 11 14 -7z m-91 -34 c-3 -10 -11 -25 -19
-31 -11 -9 -14 -8 -14 5 0 11 5 14 12 10 7 -5 9 -2 5 9 -3 9 -1 18 6 21 7 2
13 5 14 5 0 1 -1 -8 -4 -19z m67 -114 c0 -2 -7 -7 -16 -10 -8 -3 -12 -2 -9 4
6 10 25 14 25 6z m152 -63 c2 -19 1 -36 -4 -39 -13 -9 -98 34 -98 49 0 16 27
30 40 22 5 -3 11 -1 14 4 14 21 44 -1 48 -36z m-117 7 c3 -6 -1 -7 -9 -4 -18
7 -21 14 -7 14 6 0 13 -4 16 -10z m249 -46 c9 -24 2 -26 -12 -4 -7 11 -8 20
-3 20 5 0 12 -7 15 -16z"/>
<path d="M3697 3933 c3 -7 6 -13 8 -13 2 0 5 6 8 13 3 8 -1 14 -8 14 -7 0 -11
-6 -8 -14z"/>
<path d="M4435 3940 c3 -5 11 -10 16 -10 6 0 7 5 4 10 -3 6 -11 10 -16 10 -6
0 -7 -4 -4 -10z"/>
<path d="M3834 3895 c-4 -8 -13 -15 -21 -15 -11 0 -8 -6 8 -19 36 -27 60 -38
97 -44 l32 -5 -25 30 c-14 16 -25 34 -25 39 0 6 -4 8 -9 5 -5 -3 -11 1 -15 9
-7 19 -35 19 -42 0z"/>
<path d="M5896 3804 c-4 -12 -1 -14 13 -9 14 4 23 0 31 -15 7 -13 19 -20 32
-18 34 5 31 23 -7 41 -44 21 -61 21 -69 1z"/>
<path d="M3163 3688 c-9 -10 -23 -18 -32 -18 -9 -1 0 -8 19 -16 47 -21 187 -9
270 23 30 11 -45 25 -143 27 -82 1 -101 -2 -114 -16z"/>
<path d="M4610 3681 c0 -5 17 -15 38 -22 55 -18 80 -35 154 -108 37 -36 70
-62 73 -59 8 7 -135 140 -165 154 -79 36 -100 43 -100 35z"/>
<path d="M4413 3435 c-22 -16 -15 -24 25 -29 16 -3 40 -10 52 -16 15 -8 20 -8
16 -1 -4 6 -1 11 6 12 7 0 2 5 -12 11 -14 6 -28 10 -32 10 -5 -1 -8 2 -8 7 0
16 -28 20 -47 6z"/>
<path d="M5161 3392 c1 -20 6 -45 11 -54 5 -11 5 -18 -1 -18 -5 0 -8 -14 -7
-31 1 -16 -1 -32 -5 -35 -4 -2 -1 -24 6 -49 12 -38 12 -53 0 -97 -11 -43 -11
-50 0 -35 13 18 29 87 45 192 7 50 -3 109 -20 120 -5 3 -7 12 -4 19 3 7 -2 16
-11 20 -14 5 -16 0 -14 -32z"/>
<path d="M4390 3376 c0 -2 8 -10 18 -17 15 -13 16 -12 3 4 -13 16 -21 21 -21
13z"/>
<path d="M5232 3170 c0 -14 2 -19 5 -12 2 6 2 18 0 25 -3 6 -5 1 -5 -13z"/>
<path d="M4226 3067 c3 -10 9 -15 12 -12 3 3 0 11 -7 18 -10 9 -11 8 -5 -6z"/>
<path d="M4265 3020 c18 -35 24 -38 22 -11 0 10 -9 24 -19 30 -18 11 -18 10
-3 -19z"/>
<path d="M3490 3020 c-7 -4 -41 -8 -75 -8 -34 0 -71 -5 -82 -11 -22 -11 -37
-68 -19 -68 6 0 28 -8 48 -17 25 -12 54 -17 88 -14 27 1 50 0 50 -4 0 -4 9 -9
19 -13 10 -3 21 -15 24 -26 3 -10 19 -24 36 -30 18 -6 28 -16 24 -22 -4 -6 -1
-7 8 -1 8 4 52 9 99 10 47 1 101 5 120 8 19 3 67 7 105 10 153 10 190 28 128
60 -53 27 -108 37 -142 25 -17 -6 -31 -14 -31 -19 0 -4 -21 -15 -47 -25 -27
-10 -51 -23 -55 -29 -5 -7 -8 -5 -8 5 0 16 -31 30 -75 34 -11 1 -22 3 -25 4
-3 1 -18 4 -35 6 -16 2 -31 9 -33 15 -2 5 -10 10 -18 10 -8 0 -13 5 -11 12 1
7 -5 13 -13 13 -8 0 -14 6 -13 11 3 19 -53 73 -67 64z"/>
<path d="M4304 2954 c3 -9 6 -18 6 -20 0 -2 5 -4 10 -4 6 0 10 9 10 20 0 12
-7 20 -16 20 -11 0 -14 -5 -10 -16z"/>
<path d="M4320 2911 c0 -6 4 -12 8 -15 5 -3 9 1 9 9 0 8 -4 15 -9 15 -4 0 -8
-4 -8 -9z"/>
<path d="M4320 2863 c0 -7 6 -13 13 -13 6 0 4 -5 -6 -11 -11 -7 -16 -18 -13
-35 3 -13 0 -24 -5 -24 -6 0 -5 -10 2 -22 7 -13 12 -25 12 -28 -1 -3 2 -4 6
-3 4 1 8 -10 9 -25 2 -28 45 -96 72 -115 10 -7 24 -26 33 -43 9 -17 25 -34 36
-37 21 -5 25 12 6 25 -5 4 1 8 15 9 23 0 23 1 5 9 -11 5 -14 9 -7 9 17 1 11
21 -15 46 -14 14 -19 25 -13 31 6 6 -1 30 -17 64 -14 30 -28 64 -30 75 -2 11
-10 25 -19 32 -9 6 -13 16 -9 22 3 7 -3 11 -15 11 -16 0 -20 4 -15 19 5 15 1
19 -20 17 -14 0 -25 -7 -25 -13z m170 -283 c0 -5 -2 -10 -4 -10 -3 0 -8 5 -11
10 -3 6 -1 10 4 10 6 0 11 -4 11 -10z"/>
<path d="M4997 2746 c-8 -25 -13 -47 -10 -49 2 -3 -1 -16 -9 -29 -7 -12 -13
-30 -14 -39 -1 -9 -15 -53 -33 -98 -17 -46 -31 -96 -31 -112 0 -19 -5 -29 -15
-29 -8 0 -15 -7 -15 -15 0 -8 -9 -32 -21 -54 -31 -60 -26 -109 26 -286 l17
-60 13 35 c6 19 13 60 14 90 1 30 7 60 12 67 6 6 9 20 8 30 -1 10 0 25 4 33 3
8 8 42 11 74 4 33 10 64 15 70 5 6 6 23 4 39 -2 16 1 27 8 27 6 0 9 6 6 14 -3
8 -3 17 1 21 4 4 7 16 7 28 1 12 4 28 8 35 5 7 4 12 -3 12 -6 0 -8 12 -4 33 3
17 8 41 9 52 7 45 16 92 25 123 14 51 -15 41 -33 -12z"/>
<path d="M3071 2504 c0 -11 3 -14 6 -6 3 7 2 16 -1 19 -3 4 -6 -2 -5 -13z"/>
<path d="M3091 2498 c0 -9 -7 -18 -13 -21 -10 -3 -8 -10 5 -23 17 -18 18 -18
37 4 11 12 15 17 8 12 -7 -6 -21 -10 -32 -10 -16 0 -18 3 -8 9 8 5 12 17 9 27
-4 15 -5 16 -6 2z"/>
<path d="M3022 2454 c-7 -8 -8 -14 -3 -14 10 0 25 19 20 25 -2 1 -10 -3 -17
-11z"/>
<path d="M3416 2433 c-4 -11 -1 -11 14 -3 24 13 25 17 5 17 -8 0 -16 -6 -19
-14z"/>
<path d="M3040 2421 c0 -7 -4 -9 -10 -6 -6 4 -10 -11 -10 -39 0 -35 3 -44 14
-40 12 5 13 11 4 30 -12 26 3 57 16 35 4 -6 2 -11 -4 -11 -8 0 -9 -7 -5 -17
12 -28 14 -64 4 -57 -5 3 -9 1 -9 -5 0 -6 12 -13 28 -17 15 -3 34 -8 42 -11 8
-3 22 -7 30 -9 8 -1 25 -6 38 -9 12 -4 22 -3 22 2 0 6 10 9 23 8 33 -3 67 -16
67 -26 0 -20 60 -75 84 -77 33 -2 86 -29 86 -42 0 -6 19 -10 43 -10 24 0 47
-3 50 -7 9 -9 44 -13 147 -17 94 -3 154 12 177 44 8 11 18 18 23 15 4 -3 10 4
13 14 4 16 14 19 59 20 41 0 77 10 137 36 45 20 91 37 102 38 10 1 19 4 20 7
0 3 2 13 4 23 2 9 -1 15 -6 11 -5 -3 -9 -1 -9 4 0 6 -14 15 -31 21 -43 15 -99
14 -99 -1 0 -9 -4 -8 -10 2 -8 13 -10 12 -11 -5 -1 -11 0 -28 1 -39 1 -11 -3
-15 -9 -12 -6 4 -11 2 -11 -3 0 -6 -9 -11 -20 -11 -11 0 -20 5 -20 10 0 15
-20 12 -20 -2 -1 -7 -9 -23 -20 -36 -16 -19 -23 -21 -39 -12 -12 6 -27 23 -35
38 -10 17 -15 21 -16 11 0 -21 -51 -32 -85 -19 -18 7 -31 6 -44 -2 -15 -9 -44
-6 -137 16 -197 45 -201 46 -214 71 -7 12 -17 22 -24 22 -39 -1 -57 4 -53 16
2 6 9 11 13 10 5 -1 19 6 32 15 l22 17 -28 -1 c-16 0 -35 -4 -42 -9 -9 -6 -11
-4 -5 6 7 11 6 12 -7 2 -8 -7 -18 -10 -21 -6 -4 3 -7 1 -7 -6 0 -7 -5 -9 -10
-6 -6 3 -24 -3 -41 -15 -32 -23 -119 -38 -119 -20 0 5 -6 9 -12 8 -7 -2 -12 3
-10 10 1 6 -4 12 -10 12 -8 0 -4 8 7 17 18 14 18 15 1 9 -10 -3 -25 -1 -32 5
-11 9 -14 9 -14 0z m950 -211 c0 -5 -2 -10 -4 -10 -3 0 -8 5 -11 10 -3 6 -1
10 4 10 6 0 11 -4 11 -10z"/>
<path d="M3900 2405 c7 -8 21 -15 32 -15 11 0 29 -5 41 -11 20 -9 20 -9 5 4
-20 16 -25 32 -6 21 7 -4 8 -3 4 4 -4 7 -25 12 -48 12 -35 0 -39 -2 -28 -15z"/>
<path d="M2701 2274 c0 -11 3 -14 6 -6 3 7 2 16 -1 19 -3 4 -6 -2 -5 -13z"/>
<path d="M4627 1912 c-15 -15 -27 -33 -27 -40 0 -16 -17 -15 -23 1 -3 7 -6 5
-6 -5 -1 -9 -12 -29 -27 -43 -14 -14 -22 -30 -18 -37 4 -7 3 -8 -5 -4 -6 4 -9
12 -6 17 3 5 -1 6 -9 3 -9 -3 -16 -13 -16 -21 0 -13 -2 -13 -17 -2 -14 12 -16
12 -8 0 6 -11 4 -13 -8 -8 -9 3 -16 3 -16 -1 1 -4 1 -22 0 -40 -1 -27 -3 -31
-15 -20 -7 7 -11 20 -9 28 2 8 -2 4 -10 -10 -9 -14 -17 -23 -19 -20 -7 11 -65
-57 -72 -85 -7 -27 -9 -28 -20 -13 -12 17 -14 17 -31 -1 -9 -11 -14 -25 -10
-30 3 -6 -1 -11 -10 -11 -9 0 -30 -9 -46 -21 -25 -18 -28 -23 -17 -42 11 -21
10 -21 -7 -7 -17 14 -18 13 -13 -6 5 -20 3 -21 -22 -14 -33 9 -54 -15 -38 -44
13 -23 -9 -41 -29 -24 -10 8 -11 14 -2 25 7 7 9 16 6 20 -4 3 -13 -9 -21 -28
-9 -20 -15 -27 -16 -16 0 10 -4 16 -10 12 -5 -3 -7 -12 -4 -20 6 -14 -33 -41
-44 -31 -3 3 0 6 6 6 7 0 12 8 11 18 0 9 -3 12 -5 5 -3 -7 -11 -10 -17 -7 -13
5 -42 -34 -32 -44 3 -4 9 -1 13 5 4 6 7 -11 7 -37 0 -44 -3 -50 -25 -56 -38
-11 -39 -11 -50 -13 -5 0 -10 -5 -10 -11 0 -5 6 -7 14 -4 8 3 17 0 22 -7 5 -9
2 -10 -9 -6 -10 4 -17 1 -17 -5 0 -12 -29 22 -30 35 0 4 7 7 15 7 22 0 18 38
-5 45 -11 3 -25 3 -31 0 -6 -4 -13 2 -16 14 -3 11 -10 18 -15 15 -6 -4 -14 0
-19 7 -7 11 -9 11 -9 -3 0 -9 -5 -20 -12 -24 -8 -5 -9 0 -6 14 4 12 3 22 -2
22 -11 0 -21 -30 -14 -41 3 -5 0 -9 -5 -9 -6 0 -11 9 -11 20 0 23 -17 25 -44
5 -23 -17 -46 -20 -46 -5 0 5 7 7 15 4 10 -4 15 0 15 14 0 11 -8 22 -20 25
-12 3 -18 1 -14 -5 5 -7 -2 -9 -20 -4 -16 4 -26 2 -26 -5 0 -19 -20 -5 -41 29
-12 17 -16 32 -10 32 6 0 11 5 11 12 0 6 -8 3 -20 -7 -11 -10 -17 -21 -15 -26
3 -4 0 -11 -6 -15 -8 -5 -10 2 -7 24 2 17 1 29 -3 26 -4 -2 -11 1 -14 6 -5 8
-12 6 -24 -4 -15 -14 -19 -14 -34 4 -17 20 -43 28 -32 10 4 -6 -5 -10 -20 -10
-15 0 -24 4 -20 10 3 6 -1 10 -9 10 -9 0 -13 -6 -10 -15 5 -12 -2 -14 -34 -11
-27 2 -39 -1 -36 -8 2 -6 -7 -16 -21 -22 -23 -11 -24 -10 -14 7 8 17 4 23 -13
18 -2 0 -16 4 -31 10 -20 8 -26 8 -21 0 3 -6 1 -15 -6 -19 -10 -6 -8 -16 9
-46 18 -29 19 -39 9 -45 -12 -8 -4 -13 15 -10 4 0 7 -9 8 -22 0 -21 1 -21 10
-2 8 17 9 16 6 -7 -3 -16 1 -28 7 -28 6 -1 -2 -7 -19 -15 -16 -7 -24 -14 -17
-14 19 -1 14 -21 -5 -22 -13 0 -11 -3 7 -10 14 -6 41 -9 62 -7 20 2 35 1 32
-3 -4 -6 173 -29 228 -29 18 0 36 7 44 18 12 16 13 15 8 -4 -4 -13 -1 -21 8
-21 7 -1 28 -4 46 -8 28 -7 32 -5 32 13 0 11 6 22 13 25 10 4 13 -2 9 -19 -2
-14 0 -24 7 -24 7 0 10 4 7 8 -2 4 4 8 14 8 10 0 17 -3 14 -7 -2 -4 3 -10 12
-13 13 -5 15 -2 11 14 -3 11 -1 18 4 14 5 -3 9 4 9 15 0 12 5 21 11 21 7 0 8
-11 3 -32 -6 -30 -5 -31 10 -19 15 13 18 12 23 -7 8 -31 37 -27 51 6 l12 27
-5 -26 c-4 -24 -1 -27 28 -33 26 -4 196 -9 244 -7 6 1 26 25 43 54 17 28 52
82 78 118 60 85 161 233 223 325 46 68 195 344 187 344 -2 0 -16 -13 -31 -28z
m-312 -342 c-3 -5 -12 -10 -18 -10 -7 0 -6 4 3 10 19 12 23 12 15 0z m-160
-148 c3 -8 0 -10 -8 -5 -6 4 -16 8 -22 8 -5 0 -11 8 -13 18 -3 16 -1 17 17 5
11 -7 23 -19 26 -26z m-959 -11 c-4 -5 0 -12 6 -14 7 -3 3 -6 -9 -6 -23 -1
-30 9 -16 22 10 10 25 8 19 -2z m924 -36 c0 -8 -2 -15 -4 -15 -2 0 -6 7 -10
15 -3 8 -1 15 4 15 6 0 10 -7 10 -15z m-662 -26 c-3 -8 -7 -3 -11 10 -4 17 -3
21 5 13 5 -5 8 -16 6 -23z m562 -8 c0 -10 -7 -21 -15 -25 -8 -3 -15 -1 -15 3
0 5 -3 16 -6 25 -4 12 0 16 15 16 14 0 21 -6 21 -19z m-800 -17 c0 -8 -4 -12
-10 -9 -5 3 -10 13 -10 21 0 8 5 12 10 9 6 -3 10 -13 10 -21z m240 -19 c0 -8
-4 -15 -10 -15 -5 0 -7 7 -4 15 4 8 8 15 10 15 2 0 4 -7 4 -15z m350 11 c0 -3
-4 -8 -10 -11 -5 -3 -10 -1 -10 4 0 6 5 11 10 11 6 0 10 -2 10 -4z m17 -57 c2
-22 -8 -24 -25 -7 -17 17 -15 24 6 25 11 1 18 -6 19 -18z m-7 -39 c0 -4 -6
-10 -13 -13 -8 -3 -14 4 -15 20 -2 22 0 24 13 13 8 -7 15 -16 15 -20z m-126
-5 c-22 -17 -44 -19 -44 -5 0 5 6 7 14 4 8 -3 17 -1 21 5 3 6 11 11 18 11 6 0
2 -7 -9 -15z m43 -22 c-3 -10 -5 -4 -5 12 0 17 2 24 5 18 2 -7 2 -21 0 -30z
m40 15 c-3 -8 -6 -5 -6 6 -1 11 2 17 5 13 3 -3 4 -12 1 -19z m95 -15 c-6 -2
-9 -10 -6 -15 4 -7 2 -8 -4 -4 -18 11 -14 26 6 25 10 0 12 -3 4 -6z m78 -3 c0
-5 -2 -10 -4 -10 -3 0 -8 5 -11 10 -3 6 -1 10 4 10 6 0 11 -4 11 -10z m-550
-10 c0 -5 -2 -10 -4 -10 -3 0 -8 5 -11 10 -3 6 -1 10 4 10 6 0 11 -4 11 -10z
m30 6 c0 -3 -4 -8 -10 -11 -5 -3 -10 -1 -10 4 0 6 5 11 10 11 6 0 10 -2 10 -4z"/>
<path d="M2869 1787 c8 -21 7 -27 -8 -32 -14 -4 -17 -13 -15 -36 3 -22 0 -28
-9 -23 -6 4 -8 3 -4 -1 15 -17 35 -12 46 12 6 13 15 22 20 18 12 -7 11 -64 0
-71 -5 -3 -6 -19 -2 -36 5 -26 4 -30 -10 -25 -9 3 -19 2 -22 -3 -4 -6 1 -10
10 -10 10 0 13 -5 9 -12 -5 -8 0 -7 11 2 16 13 16 9 -4 -25 l-23 -40 26 30
c18 21 24 37 21 55 -5 22 -4 23 6 7 8 -14 4 -35 -22 -99 -26 -64 -33 -98 -35
-163 l-3 -83 31 -6 c17 -3 33 -4 36 -1 3 3 -2 5 -10 5 -9 0 -18 9 -21 20 -3
10 -1 18 3 17 7 -2 12 7 9 16 -7 20 -3 47 8 52 8 2 11 9 8 15 -3 6 1 13 9 16
9 3 14 9 11 13 -8 14 11 66 25 66 7 0 15 7 17 15 4 13 3 13 -6 0 -9 -13 -11
-13 -11 2 0 9 5 20 11 24 6 3 9 19 5 35 -4 23 -1 29 17 35 l22 7 -23 8 c-12 5
-22 13 -22 19 0 6 6 8 13 4 7 -4 9 -3 4 2 -5 5 -14 9 -20 9 -7 0 -13 11 -15
25 -4 33 -23 71 -33 64 -9 -5 -22 14 -26 36 -1 8 -7 16 -13 18 -5 2 -8 7 -5
12 3 4 -2 13 -10 20 -14 11 -14 10 -6 -13z m26 -37 c3 -5 1 -10 -4 -10 -6 0
-11 5 -11 10 0 6 2 10 4 10 3 0 8 -4 11 -10z"/>
<path d="M3350 1746 c0 -2 7 -7 16 -10 8 -3 12 -2 9 4 -6 10 -25 14 -25 6z"/>
<path d="M3426 1711 c-4 -5 3 -7 14 -4 23 6 26 13 6 13 -8 0 -17 -4 -20 -9z"/>
<path d="M3647 1712 c-32 -2 -47 -7 -44 -15 5 -13 6 -13 51 -1 21 5 27 4 22
-5 -4 -6 -1 -11 9 -11 9 0 14 4 11 9 -4 5 -1 11 6 13 23 8 -7 13 -55 10z"/>
<path d="M3575 1700 c3 -5 8 -10 11 -10 2 0 4 5 4 10 0 6 -5 10 -11 10 -5 0
-7 -4 -4 -10z"/>
<path d="M3450 1695 c0 -5 5 -17 10 -25 5 -8 10 -10 10 -5 0 6 -5 17 -10 25
-5 8 -10 11 -10 5z"/>
<path d="M3730 1689 c0 -5 5 -7 10 -4 6 3 10 8 10 11 0 2 -4 4 -10 4 -5 0 -10
-5 -10 -11z"/>
<path d="M3019 1549 c-10 -12 -14 -30 -10 -51 l6 -33 3 35 c2 19 8 41 14 48 6
7 9 14 7 17 -2 2 -11 -5 -20 -16z"/>
<path d="M3142 1440 c0 -14 2 -19 5 -12 2 6 2 18 0 25 -3 6 -5 1 -5 -13z"/>
<path d="M3860 1350 c0 -5 -7 -7 -15 -4 -10 4 -15 0 -15 -12 0 -14 2 -16 9 -6
4 8 12 13 17 12 5 -1 10 3 12 9 2 6 1 11 -2 11 -3 0 -6 -4 -6 -10z"/>
<path d="M3893 1344 c-3 -8 -1 -20 6 -27 6 -6 11 -19 11 -29 0 -17 20 -25 32
-12 8 7 -24 84 -35 84 -4 0 -10 -7 -14 -16z m42 -54 c3 -5 1 -10 -4 -10 -6 0
-11 5 -11 10 0 6 2 10 4 10 3 0 8 -4 11 -10z"/>
</g>
</svg>